#N canvas 10 26 1048 783 12;
#X obj 34 31 cnv 15 970 700 empty empty STREAMSBOX-MASTERMIXER 730
12 0 14 -99865 -33289 0;
#N canvas 133 23 1148 855 (subpatch) 0;
#X floatatom 353 -478 0 0 0 0 - - -;
#X msg 416 -614 disconnect;
#X msg 366 -570 server 1;
#X msg 366 -549 passwd locusonus1;
#X msg 366 -528 vbr 44100 2 1;
#X obj 366 -611 bng 15 250 50 0 empty empty empty 17 7 0 10 -262144
-1 -1;
#X floatatom 561 -387 0 0 0 0 - - -;
#X msg 624 -519 disconnect;
#X msg 574 -476 server 1;
#X msg 574 -455 passwd locusonus1;
#X msg 574 -434 vbr 44100 2 1;
#X obj 574 -515 bng 15 250 50 0 empty empty empty 17 7 0 10 -262144
-1 -1;
#X floatatom 761 -294 0 0 0 0 - - -;
#X msg 823 -423 disconnect;
#X msg 773 -381 server 1;
#X msg 773 -360 passwd locusonus1;
#X msg 773 -339 vbr 44100 2 1;
#X obj 773 -421 bng 15 250 50 0 empty empty empty 17 7 0 10 -262144
-1 -1;
#X floatatom 953 -197 0 0 0 0 - - -;
#X msg 1016 -325 disconnect;
#X msg 966 -283 server 1;
#X msg 966 -262 passwd locusonus1;
#X msg 966 -241 vbr 44100 2 1;
#X obj 966 -321 bng 15 250 50 0 empty empty empty 17 7 0 10 -262144
-1 -1;
#X floatatom 1210 -82 0 0 0 0 - - -;
#X msg 1274 -212 disconnect;
#X msg 1223 -170 server 1;
#X msg 1223 -149 passwd locusonus1;
#X msg 1223 -129 vbr 44100 2 1;
#X obj 1224 -208 bng 15 250 50 0 empty empty empty 17 7 0 10 -262144
-1 -1;
#X floatatom 1406 13 0 0 0 0 - - -;
#X msg 1469 -119 disconnect;
#X msg 1419 -76 server 1;
#X msg 1419 -55 passwd locusonus1;
#X msg 1419 -34 vbr 44100 2 1;
#X obj 1419 -116 bng 15 250 50 0 empty empty empty 17 7 0 10 -262144
-1 -1;
#X obj 564 -116 loadbang;
#X msg 564 -86 \; pd dsp 1;
#X obj -111 70 s on;
#X obj -111 45 sel 1;
#X obj -73 73 s off;
#X obj -89 13 r re;
#X obj -322 -33 loadbang;
#X msg -322 -10 recover 0;
#X obj -322 12 s recov;
#X obj -107 -42 sel 1;
#X obj -107 -17 s on1;
#X obj -61 -15 s off1;
#X msg -583 118 disconnect;
#X obj -647 178 hip~ 10;
#X msg -407 157 disconnect;
#X obj -480 217 hip~ 10;
#X msg -237 218 disconnect;
#X obj -317 277 hip~ 10;
#X msg -568 442 disconnect;
#X obj -641 501 hip~ 10;
#X msg -416 499 disconnect;
#X obj -482 559 hip~ 10;
#X msg -254 555 disconnect;
#X obj -326 615 hip~ 10;
#X obj -589 168 env~;
#X floatatom 29 421 3 0 0 0 - - -;
#X obj -422 205 env~;
#X obj -261 266 env~;
#X obj -583 487 env~;
#X obj -421 545 env~;
#X obj -266 602 env~;
#X floatatom -387 545 4 0 0 0 - - -;
#X floatatom -538 488 4 0 0 0 - - -;
#X floatatom -214 262 4 0 0 0 - - -;
#X floatatom -549 168 4 0 0 0 - - -;
#X floatatom -380 203 4 0 0 0 - - -;
#X msg -480 114 connect locus.creacast.com Simon.ogg 9001;
#X msg -316 159 connect locus.creacast.com Steve.ogg 9001;
#X msg -641 400 connect locus.creacast.com Gregroire.ogg 9001;
#X msg -480 457 connect locus.creacast.com Andy.ogg 9001;
#X msg -322 512 connect locus.creacast.com Meryll.ogg 9001;
#N canvas 366 218 603 554 re-connect 0;
#X obj 29 108 inlet;
#X obj 30 171 bng 15 250 50 0 empty empty empty 0 -6 0 8 -262144 -1
-1;
#X obj 96 119 tgl 15 0 empty empty empty 0 -6 0 8 -262144 -1 -1 0 1
;
#X obj 120 432 spigot;
#X obj 96 96 inlet;
#X obj 95 213 + 1;
#X msg 95 190 1;
#X floatatom 155 265 5 0 0 0 - - -;
#X msg 95 261 0;
#X obj 127 289 bng 15 250 50 0 empty empty empty 0 -6 0 8 -262144 -1
-1;
#X obj 214 427 print re-connect;
#X obj 30 135 change;
#X msg 159 393 1;
#X msg 127 393 0;
#X obj 120 468 outlet;
#X obj 95 237 select 5;
#X obj 96 166 metro 5000;
#X obj 150 338 del 10000;
#X connect 0 0 11 0;
#X connect 1 0 8 0;
#X connect 2 0 3 1;
#X connect 2 0 16 0;
#X connect 3 0 14 0;
#X connect 4 0 2 0;
#X connect 5 0 15 0;
#X connect 6 0 5 0;
#X connect 7 0 5 1;
#X connect 8 0 7 0;
#X connect 9 0 17 0;
#X connect 9 0 13 0;
#X connect 11 0 1 0;
#X connect 12 0 10 0;
#X connect 12 0 3 0;
#X connect 13 0 10 0;
#X connect 13 0 3 0;
#X connect 15 0 8 0;
#X connect 15 0 9 0;
#X connect 15 1 7 0;
#X connect 16 0 6 0;
#X connect 17 0 12 0;
#X restore -608 211 pd re-connect;
#X obj -549 188 r on;
#X obj -608 232 s re;
#N canvas 366 218 603 554 re-connect 0;
#X obj 29 108 inlet;
#X obj 30 171 bng 15 250 50 0 empty empty empty 0 -6 0 8 -262144 -1
-1;
#X obj 96 119 tgl 15 0 empty empty empty 0 -6 0 8 -262144 -1 -1 0 1
;
#X obj 120 432 spigot;
#X obj 96 96 inlet;
#X obj 95 213 + 1;
#X msg 95 190 1;
#X floatatom 155 265 5 0 0 0 - - -;
#X msg 95 261 0;
#X obj 127 289 bng 15 250 50 0 empty empty empty 0 -6 0 8 -262144 -1
-1;
#X obj 214 427 print re-connect;
#X obj 30 135 change;
#X msg 159 393 1;
#X msg 127 393 0;
#X obj 120 468 outlet;
#X obj 95 237 select 5;
#X obj 96 166 metro 5000;
#X obj 150 338 del 10000;
#X connect 0 0 11 0;
#X connect 1 0 8 0;
#X connect 2 0 3 1;
#X connect 2 0 16 0;
#X connect 3 0 14 0;
#X connect 4 0 2 0;
#X connect 5 0 15 0;
#X connect 6 0 5 0;
#X connect 7 0 5 1;
#X connect 8 0 7 0;
#X connect 9 0 17 0;
#X connect 9 0 13 0;
#X connect 11 0 1 0;
#X connect 12 0 10 0;
#X connect 12 0 3 0;
#X connect 13 0 10 0;
#X connect 13 0 3 0;
#X connect 15 0 8 0;
#X connect 15 0 9 0;
#X connect 15 1 7 0;
#X connect 16 0 6 0;
#X connect 17 0 12 0;
#X restore -430 247 pd re-connect;
#X obj -381 223 r on;
#X obj -430 269 s re;
#N canvas 366 218 603 554 re-connect 0;
#X obj 29 108 inlet;
#X obj 30 171 bng 15 250 50 0 empty empty empty 0 -6 0 8 -262144 -1
-1;
#X obj 96 119 tgl 15 0 empty empty empty 0 -6 0 8 -262144 -1 -1 0 1
;
#X obj 120 432 spigot;
#X obj 96 96 inlet;
#X obj 95 213 + 1;
#X msg 95 190 1;
#X floatatom 155 265 5 0 0 0 - - -;
#X msg 95 261 0;
#X obj 127 289 bng 15 250 50 0 empty empty empty 0 -6 0 8 -262144 -1
-1;
#X obj 214 427 print re-connect;
#X obj 30 135 change;
#X msg 159 393 1;
#X msg 127 393 0;
#X obj 120 468 outlet;
#X obj 95 237 select 5;
#X obj 96 166 metro 5000;
#X obj 150 338 del 10000;
#X connect 0 0 11 0;
#X connect 1 0 8 0;
#X connect 2 0 3 1;
#X connect 2 0 16 0;
#X connect 3 0 14 0;
#X connect 4 0 2 0;
#X connect 5 0 15 0;
#X connect 6 0 5 0;
#X connect 7 0 5 1;
#X connect 8 0 7 0;
#X connect 9 0 17 0;
#X connect 9 0 13 0;
#X connect 11 0 1 0;
#X connect 12 0 10 0;
#X connect 12 0 3 0;
#X connect 13 0 10 0;
#X connect 13 0 3 0;
#X connect 15 0 8 0;
#X connect 15 0 9 0;
#X connect 15 1 7 0;
#X connect 16 0 6 0;
#X connect 17 0 12 0;
#X restore -261 309 pd re-connect;
#N canvas 366 218 603 554 re-connect 0;
#X obj 29 108 inlet;
#X obj 30 171 bng 15 250 50 0 empty empty empty 0 -6 0 8 -262144 -1
-1;
#X obj 96 119 tgl 15 0 empty empty empty 0 -6 0 8 -262144 -1 -1 0 1
;
#X obj 120 432 spigot;
#X obj 96 96 inlet;
#X obj 95 213 + 1;
#X msg 95 190 1;
#X floatatom 155 265 5 0 0 0 - - -;
#X msg 95 261 0;
#X obj 127 289 bng 15 250 50 0 empty empty empty 0 -6 0 8 -262144 -1
-1;
#X obj 214 427 print re-connect;
#X obj 30 135 change;
#X msg 159 393 1;
#X msg 127 393 0;
#X obj 120 468 outlet;
#X obj 95 237 select 5;
#X obj 96 166 metro 5000;
#X obj 150 338 del 10000;
#X connect 0 0 11 0;
#X connect 1 0 8 0;
#X connect 2 0 3 1;
#X connect 2 0 16 0;
#X connect 3 0 14 0;
#X connect 4 0 2 0;
#X connect 5 0 15 0;
#X connect 6 0 5 0;
#X connect 7 0 5 1;
#X connect 8 0 7 0;
#X connect 9 0 17 0;
#X connect 9 0 13 0;
#X connect 11 0 1 0;
#X connect 12 0 10 0;
#X connect 12 0 3 0;
#X connect 13 0 10 0;
#X connect 13 0 3 0;
#X connect 15 0 8 0;
#X connect 15 0 9 0;
#X connect 15 1 7 0;
#X connect 16 0 6 0;
#X connect 17 0 12 0;
#X restore -601 529 pd re-connect;
#N canvas 366 218 603 554 re-connect 0;
#X obj 29 108 inlet;
#X obj 30 171 bng 15 250 50 0 empty empty empty 0 -6 0 8 -262144 -1
-1;
#X obj 96 119 tgl 15 0 empty empty empty 0 -6 0 8 -262144 -1 -1 0 1
;
#X obj 120 432 spigot;
#X obj 96 96 inlet;
#X obj 95 213 + 1;
#X msg 95 190 1;
#X floatatom 155 265 5 0 0 0 - - -;
#X msg 95 261 0;
#X obj 127 289 bng 15 250 50 0 empty empty empty 0 -6 0 8 -262144 -1
-1;
#X obj 214 427 print re-connect;
#X obj 30 135 change;
#X msg 159 393 1;
#X msg 127 393 0;
#X obj 120 468 outlet;
#X obj 95 237 select 5;
#X obj 96 166 metro 5000;
#X obj 150 338 del 10000;
#X connect 0 0 11 0;
#X connect 1 0 8 0;
#X connect 2 0 3 1;
#X connect 2 0 16 0;
#X connect 3 0 14 0;
#X connect 4 0 2 0;
#X connect 5 0 15 0;
#X connect 6 0 5 0;
#X connect 7 0 5 1;
#X connect 8 0 7 0;
#X connect 9 0 17 0;
#X connect 9 0 13 0;
#X connect 11 0 1 0;
#X connect 12 0 10 0;
#X connect 12 0 3 0;
#X connect 13 0 10 0;
#X connect 13 0 3 0;
#X connect 15 0 8 0;
#X connect 15 0 9 0;
#X connect 15 1 7 0;
#X connect 16 0 6 0;
#X connect 17 0 12 0;
#X restore -436 590 pd re-connect;
#N canvas 366 218 603 554 re-connect 0;
#X obj 29 108 inlet;
#X obj 30 171 bng 15 250 50 0 empty empty empty 0 -6 0 8 -262144 -1
-1;
#X obj 96 119 tgl 15 0 empty empty empty 0 -6 0 8 -262144 -1 -1 0 1
;
#X obj 120 432 spigot;
#X obj 96 96 inlet;
#X obj 95 213 + 1;
#X msg 95 190 1;
#X floatatom 155 265 5 0 0 0 - - -;
#X msg 95 261 0;
#X obj 127 289 bng 15 250 50 0 empty empty empty 0 -6 0 8 -262144 -1
-1;
#X obj 214 427 print re-connect;
#X obj 30 135 change;
#X msg 159 393 1;
#X msg 127 393 0;
#X obj 120 468 outlet;
#X obj 95 237 select 5;
#X obj 96 166 metro 5000;
#X obj 150 338 del 10000;
#X connect 0 0 11 0;
#X connect 1 0 8 0;
#X connect 2 0 3 1;
#X connect 2 0 16 0;
#X connect 3 0 14 0;
#X connect 4 0 2 0;
#X connect 5 0 15 0;
#X connect 6 0 5 0;
#X connect 7 0 5 1;
#X connect 8 0 7 0;
#X connect 9 0 17 0;
#X connect 9 0 13 0;
#X connect 11 0 1 0;
#X connect 12 0 10 0;
#X connect 12 0 3 0;
#X connect 13 0 10 0;
#X connect 13 0 3 0;
#X connect 15 0 8 0;
#X connect 15 0 9 0;
#X connect 15 1 7 0;
#X connect 16 0 6 0;
#X connect 17 0 12 0;
#X restore -276 644 pd re-connect;
#X obj -583 97 r off;
#X obj -407 135 r off;
#X obj -237 196 r off;
#X obj -568 421 r off;
#X obj -416 478 r off;
#X obj -254 534 r off;
#X obj -642 98 r recov;
#X obj -466 140 r recov;
#X obj -299 203 r recov;
#X obj -641 430 r recov;
#X obj -335 541 r recov;
#X obj -472 490 r recov;
#X obj 365 -634 r on1;
#X obj 572 -537 r on1;
#X obj 773 -442 r on1;
#X obj 964 -343 r on1;
#X obj 1224 -229 r on1;
#X obj 1418 -137 r on1;
#X obj 420 -635 r off1;
#X obj 628 -540 r off1;
#X obj 823 -444 r off1;
#X obj 1467 -140 r off1;
#X obj 1274 -233 r off1;
#X obj 1016 -347 r off1;
#X obj 222 146 tgl 15 0 empty empty empty 17 7 0 10 -262144 -1 -1 0
1;
#X obj 222 105 tgl 15 0 empty empty empty 17 7 0 10 -262144 -1 -1 0
1;
#X obj 222 187 tgl 15 0 empty empty empty 17 7 0 10 -262144 -1 -1 0
1;
#X obj 222 307 tgl 15 0 empty empty empty 17 7 0 10 -262144 -1 -1 1
1;
#X obj 222 268 tgl 15 0 empty empty empty 17 7 0 10 -262144 -1 -1 0
1;
#X obj 222 227 tgl 15 0 empty empty empty 17 7 0 10 -262144 -1 -1 0
1;
#X obj 75 105 tgl 15 0 empty empty empty 17 7 0 10 -262144 -1 -1 1
1;
#X obj 75 146 tgl 15 0 empty empty empty 17 7 0 10 -262144 -1 -1 0
1;
#X obj 75 187 tgl 15 0 empty empty empty 17 7 0 10 -262144 -1 -1 1
1;
#X obj 75 227 tgl 15 0 empty empty empty 17 7 0 10 -262144 -1 -1 1
1;
#X obj 75 267 tgl 15 0 empty empty empty 17 7 0 10 -262144 -1 -1 0
1;
#X obj 75 307 tgl 15 0 empty empty empty 17 7 0 10 -262144 -1 -1 1
1;
#X floatatom -224 601 4 0 0 0 - - -;
#X text 133 104 ALAIN;
#X text 133 146 SIMON;
#X text 133 187 STEVE;
#X text 125 227 GREGOIRE;
#X text 137 268 ANDY;
#X text 130 308 MERYLL;
#X msg 574 -497 connect locus.creacast.com MixStereoSimon.ogg 9001
;
#X msg 773 -402 connect locus.creacast.com MixStereoSteve.ogg 9001
;
#X msg 1419 -97 connect locus.creacast.com MixStereoMeryll.ogg 9001
;
#X msg 1223 -190 connect locus.creacast.com MixStereoAndy.ogg 9001
;
#X msg 966 -304 connect locus.creacast.com MixStereoGregoire.ogg 9001
;
#X obj -261 330 s re;
#X obj -208 288 r on;
#X obj -214 622 r on;
#X obj -275 665 s re;
#X obj -435 615 s re;
#X obj -367 566 r on;
#X obj -602 551 s re;
#X obj -530 506 r on;
#X text 208 74 Status;
#X text 61 74 Status;
#X text -551 -308 STREAMSBOX for the "Now & Elsewhere" network music
performance introduced thesis work for ArTec Meeting. Novembre 6 2019
;
#X text -553 -370 This Streamsbox capture 6 mono audio streams from
6 performers \, and broadcast them differents master mix create with
Kiwi app and connected with JackPilot app.;
#X obj -656 44 r on;
#X obj -480 92 r on;
#X obj -317 138 r on;
#X obj -641 378 r on;
#X obj -480 433 r on;
#X obj -322 489 r on;
#X msg -656 69 connect locus.creacast.com Alain.ogg 9001;
#X msg 366 -591 connect locus.creacast.com MixStereoAlain.ogg 9001
;
#X obj 43 105 bng 15 250 50 0 empty empty empty 17 7 0 10 -262144 -1
-1;
#X obj 43 146 bng 15 250 50 0 empty empty empty 17 7 0 10 -262144 -1
-1;
#X obj 43 187 bng 15 250 50 0 empty empty empty 17 7 0 10 -262144 -1
-1;
#X obj 43 227 bng 15 250 50 0 empty empty empty 17 7 0 10 -262144 -1
-1;
#X obj 43 267 bng 15 250 50 0 empty empty empty 17 7 0 10 -262144 -1
-1;
#X obj 43 307 bng 15 250 50 0 empty empty empty 17 7 0 10 -262144 -1
-1;
#X obj 257 105 bng 15 250 50 0 empty empty empty 17 7 0 10 -262144
-1 -1;
#X obj 257 146 bng 15 250 50 0 empty empty empty 17 7 0 10 -262144
-1 -1;
#X obj 257 187 bng 15 250 50 0 empty empty empty 17 7 0 10 -262144
-1 -1;
#X obj 257 227 bng 15 250 50 0 empty empty empty 17 7 0 10 -262144
-1 -1;
#X obj 257 267 bng 15 250 50 0 empty empty empty 17 7 0 10 -262144
-1 -1;
#X obj 257 307 bng 15 250 50 0 empty empty empty 17 7 0 10 -262144
-1 -1;
#X obj 66 27 tgl 20 0 empty empty Input-ON/OFF-Output 25 10 0 12 -191407
-1 -1 1 1;
#X obj 228 27 tgl 20 0 empty empty empty 25 10 0 10 -191407 -1 -1 1
1;
#X obj -647 142 oggamp~ 0 1 256;
#X obj -480 182 oggamp~ 0 1 256;
#X obj -317 241 oggamp~ 0 1 256;
#X obj -641 465 oggamp~ 0 1 256;
#X obj -482 523 oggamp~ 0 1 256;
#X obj -326 578 oggamp~ 0 1 256;
#X obj 354 -499 oggcast~ 2 256;
#X obj 561 -410 oggcast~ 2 256;
#X obj 760 -315 oggcast~ 2 256;
#X obj 1406 -10 oggcast~ 2 256;
#X obj 1210 -105 oggcast~ 2 256;
#X obj 953 -220 oggcast~ 2 256;
#X obj 1026 287 *~;
#X obj 56 444 vu 15 200 empty empty -1 -8 0 10 -66577 -1 1 0;
#X obj 1026 311 env~;
#X obj 1025 334 - 100;
#X obj 29 443 vsl 20 200 0 6 0 0 empty md1 Alain 8 215 0 10 -66577
-260097 -262144 13200 1;
#X obj 993 116 *~;
#X obj 345 53 hsl 150 20 0 1 0 0 empty empty Alain 115 10 0 10 -66577
-260097 -262144 5960 1;
#X obj 1070 317 *~;
#X obj 142 444 vu 15 200 empty empty -1 -8 0 10 -66577 -1 1 0;
#X obj 1070 340 env~;
#X obj 1069 363 - 100;
#X obj 115 443 vsl 20 200 0 6 0 0 empty md2 Simon 8 215 0 10 -66577
-260097 -262144 14000 1;
#X obj 1038 139 *~;
#X obj 345 78 hsl 150 20 0 1 0 0 empty empty Simon 115 10 0 10 -66577
-260097 -262144 5960 1;
#X obj 228 444 vu 15 200 empty empty -1 -8 0 10 -66577 -1 1 0;
#X obj 201 443 vsl 20 200 0 6 0 0 empty md3 Steve 8 215 0 10 -66577
-260097 -262144 12500 1;
#X obj 314 444 vu 15 200 empty empty -1 -8 0 10 -66577 -1 1 0;
#X obj 287 443 vsl 20 200 0 6 0 0 empty md4 Grégoire -2 215 0 10 -66577
-260097 -262144 12500 1;
#X obj 400 444 vu 15 200 empty empty -1 -8 0 10 -66577 -1 1 0;
#X obj 373 443 vsl 20 200 0 6 0 0 empty md5 Andy 12 215 0 10 -66577
-260097 -262144 11000 1;
#X obj 486 444 vu 15 200 empty empty -1 -8 0 10 -66577 -1 1 0;
#X obj 459 443 vsl 20 200 0 6 0 0 empty md6 Meryll 6 215 0 10 -66577
-260097 -262144 16200 1;
#X obj 345 104 hsl 150 20 0 1 0 0 empty empty Steve 115 10 0 10 -66577
-260097 -262144 5960 1;
#X obj 345 130 hsl 150 20 0 1 0 0 empty empty Greg. 115 10 0 10 -66577
-260097 -262144 5960 1;
#X obj 345 156 hsl 150 20 0 1 0 0 empty empty Andy 115 10 0 10 -66577
-260097 -262144 5960 1;
#X obj 345 182 hsl 150 20 0 1 0 0 empty empty Meryll 115 10 0 10 -66577
-260097 -262144 4470 1;
#X obj 1337 562 faustgen~ ambi-st;
#X obj 1026 707 faustgen~ ambi-quad;
#X obj 1039 542 faustgen~ bpfilter;
#X obj 1026 816 faustgen~ limiter-quad;
#X obj 1337 639 faustgen~ limiter-st;
#X obj 1318 329 faustgen~ freeverb;
#X obj -647 282 s~ Alain;
#X obj -480 293 s~ Simon;
#X obj -317 353 s~ Steve;
#X obj -482 640 s~ Andy;
#X obj -327 690 s~ Meryll;
#X obj 1026 36 r~ Alain;
#X obj 1070 62 r~ Simon;
#X obj 1114 343 *~;
#X obj 1114 367 env~;
#X obj 1113 390 - 100;
#X obj 1081 168 *~;
#X obj 1158 364 *~;
#X obj 1158 387 env~;
#X obj 1157 410 - 100;
#X obj 1126 191 *~;
#X obj 1114 88 r~ Steve;
#X obj 1158 114 r~ Gregoire;
#X obj -641 580 s~ Gregoire;
#X obj 1202 389 *~;
#X obj 1202 413 env~;
#X obj 1201 436 - 100;
#X obj 1169 218 *~;
#X obj 1246 417 *~;
#X obj 1246 440 env~;
#X obj 1245 463 - 100;
#X obj 1214 241 *~;
#X obj 1354 587 *~;
#X obj 1412 587 *~;
#X obj 1337 614 *~;
#X obj 1395 614 *~;
#X obj 1491 562 faustgen~ ambi-st;
#X obj 1491 639 faustgen~ limiter-st;
#X obj 1508 587 *~;
#X obj 1566 587 *~;
#X obj 1491 614 *~;
#X obj 1549 614 *~;
#X obj 1270 794 faustgen~ ambi-st;
#X obj 1270 872 faustgen~ limiter-st;
#X obj 1290 821 *~;
#X obj 1348 821 *~;
#X obj 1270 847 *~;
#X obj 1328 847 *~;
#X obj 1474 796 faustgen~ ambi-st;
#X obj 1474 874 faustgen~ limiter-st;
#X obj 1494 823 *~;
#X obj 1552 823 *~;
#X obj 1474 849 *~;
#X obj 1532 849 *~;
#X obj 1643 561 faustgen~ ambi-st;
#X obj 1643 638 faustgen~ limiter-st;
#X obj 1660 586 *~;
#X obj 1718 586 *~;
#X obj 1643 613 *~;
#X obj 1701 613 *~;
#X obj 1626 797 faustgen~ ambi-st;
#X obj 1626 875 faustgen~ limiter-st;
#X obj 1646 824 *~;
#X obj 1704 824 *~;
#X obj 1626 850 *~;
#X obj 1684 850 *~;
#X obj 1246 164 r~ Meryll;
#X obj 1202 138 r~ Andy;
#X obj 1034 746 *~;
#X obj 1069 746 *~;
#X obj 1026 779 *~;
#X obj 1061 779 *~;
#X obj 1105 747 *~;
#X obj 1140 747 *~;
#X obj 1097 780 *~;
#X obj 1132 780 *~;
#X obj 471 -524 r~ Alain2;
#X obj 681 -430 r~ Simon2;
#X obj 877 -335 r~ Steve2;
#X obj 1072 -241 r~ Gregoire2;
#X obj 1327 -125 r~ Andy2;
#X obj 1526 -29 r~ Meryll2;
#X obj 1412 670 s~ Alain2;
#X obj 1562 667 s~ Simon2;
#X obj 1713 666 s~ Steve2;
#X obj 1369 904 s~ Gregoire2;
#X obj 1547 908 s~ Andy2;
#X obj 1705 905 s~ Meryll2;
#X obj 352 -661 r~ Alain1;
#X obj 557 -560 r~ Simon1;
#X obj 750 -463 r~ Steve1;
#X obj 952 -369 r~ Gregoire1;
#X obj 1210 -255 r~ Andy1;
#X obj 1407 -161 r~ Meryll1;
#X obj 1626 905 s~ Meryll1;
#X obj 1470 904 s~ Andy1;
#X obj 1272 906 s~ Gregoire1;
#X obj 1643 666 s~ Steve1;
#X obj 1490 668 s~ Simon1;
#X obj 1338 669 s~ Alain1;
#X obj 626 444 vu 15 200 Vmq1 empty -1 -8 0 10 -66577 -1 0 0;
#X obj 585 443 vsl 20 200 0 2 0 0 empty md7 MASTER-QUADRI 47 215 0
10 -66577 -260097 -262144 7800 1;
#X obj 650 444 vu 15 200 Vmq2 empty -1 -8 0 10 -66577 -1 0 0;
#X obj 674 444 vu 15 200 Vmq3 empty -1 -8 0 10 -66577 -1 0 0;
#X obj 698 444 vu 15 200 Vmq4 empty -1 -8 0 10 -66577 -1 1 0;
#X obj 822 443 vsl 20 200 0 10 0 0 empty md8 MASTER-BUS_STEREO -6 215
0 10 -66577 -260097 -262144 13300 1;
#X obj 758 495 bng 40 250 50 0 empty empty AllDown 0 50 0 10 -99865
-228856 -262144;
#X msg 1473 249 Damp \$1;
#X msg 1473 296 Wet \$1;
#X msg 1473 272 RoomSize \$1;
#X obj 273 -107 loadbang;
#X msg 273 -79 0.2;
#X msg 316 -31 0.3;
#X msg 279 -59 0.6;
#X obj 345 253 hsl 150 20 0 1 0 0 empty empty Damp 115 10 0 10 -66577
-260097 -262144 2980 1;
#X obj 345 278 hsl 150 20 0 1 0 0 empty empty Size 115 10 0 10 -66577
-260097 -262144 8940 1;
#X obj 345 304 hsl 150 20 0 1 0 0 empty empty DryWet 115 10 0 10 -66577
-260097 -262144 2980 1;
#X obj 345 330 hsl 150 20 0 1 0 0 empty empty Volume 115 10 0 10 -66577
-260097 -262144 0 1;
#X obj 1318 361 *~;
#X obj 1328 385 env~;
#X obj 1327 408 - 100;
#X obj 1379 363 *~;
#X obj 1395 388 env~;
#X obj 1394 411 - 100;
#X obj 511 268 vu 15 80 empty empty -1 -8 0 10 -66577 -1 0 0;
#X obj 535 268 vu 15 80 empty empty -1 -8 0 10 -66577 -1 1 0;
#X msg 315 -52 0.4;
#X obj -90 544 loadbang;
#X msg -89 569 set \$1;
#X msg -91 594 3.9799;
#X obj 1471 340 line~;
#X msg 1472 318 \$1 1000;
#X obj 1233 219 line~;
#X msg 1234 197 \$1 5;
#X obj 1189 194 line~;
#X msg 1190 172 \$1 5;
#X obj 1143 167 line~;
#X msg 1144 145 \$1 5;
#X obj 1101 141 line~;
#X msg 1102 119 \$1 5;
#X obj 1058 117 line~;
#X msg 1059 95 \$1 5;
#X obj 1012 93 line~;
#X msg 1013 71 \$1 5;
#X obj 1044 266 line~;
#X msg 1045 244 \$1 5;
#X obj 1090 294 line~;
#X msg 1091 272 \$1 5;
#X obj 1135 317 line~;
#X msg 1136 295 \$1 5;
#X obj 1179 340 line~;
#X msg 1180 318 \$1 5;
#X obj 1224 364 line~;
#X msg 1225 342 \$1 5;
#X obj 1265 393 line~;
#X msg 1266 371 \$1 5;
#X obj 585 755 line~;
#X msg 586 733 \$1 1500;
#X msg 713 706 0;
#X obj 1751 831 r~ Mst;
#X obj 1759 596 r~ Mst;
#X obj 767 701 line~;
#X msg 768 679 \$1 1500;
#X obj 767 724 s~ Mst;
#X obj 646 49 vu 15 80 Vms1a Alain 5 90 0 10 -66577 -1 0 0;
#X obj 670 49 vu 15 80 Vms1b empty -1 -8 0 10 -66577 -1 1 0;
#X obj 826 48 vu 15 80 Vms3a Steve 5 90 0 10 -66577 -1 0 0;
#X obj 850 48 vu 15 80 Vms3b empty -1 -8 0 10 -66577 -1 1 0;
#X obj 736 161 vu 15 80 Vms5a Andy 9 90 0 10 -66577 -1 0 0;
#X obj 760 161 vu 15 80 Vms5b empty -1 -8 0 10 -66577 -1 1 0;
#X obj 736 49 vu 15 80 Vms2a Simon 5 90 0 10 -66577 -1 0 0;
#X obj 760 49 vu 15 80 Vms2b empty -1 -8 0 10 -66577 -1 1 0;
#X obj 646 159 vu 15 80 Vms4a Grégoire -2 90 0 10 -66577 -1 0 0;
#X obj 670 159 vu 15 80 Vms4b empty -1 -8 0 10 -66577 -1 1 0;
#X obj 826 160 vu 15 80 Vms6a Meryll 4 90 0 10 -66577 -1 0 0;
#X obj 850 160 vu 15 80 Vms6b empty -1 -8 0 10 -66577 -1 1 0;
#X obj 433 731 phasor~;
#X obj 433 827 *~ -1;
#X obj 493 732 phasor~;
#X obj 493 828 *~ -1;
#X obj 518 889 *~;
#X obj 493 708 / 2;
#X obj 445 888 *~;
#X obj 411 916 *~;
#X obj 489 916 *~;
#X obj 702 363 hsl 150 20 -10 10 0 0 empty md9 SPAT 115 10 0 10 -66577
-260097 -262144 5751 1;
#X obj 667 363 tgl 20 0 empty empty I/O -24 11 0 12 -66577 -260097
-1 0 1;
#X obj 369 787 line~;
#X msg 369 757 \$1 1000;
#X obj 1261 933 env~;
#X obj 1260 956 - 100;
#X obj 1346 935 env~;
#X obj 1345 958 - 100;
#X obj 1470 934 env~;
#X obj 1469 957 - 100;
#X obj 1546 937 env~;
#X obj 1545 960 - 100;
#X obj 1625 937 env~;
#X obj 1624 960 - 100;
#X obj 1701 940 env~;
#X obj 1700 963 - 100;
#X obj 1646 691 env~;
#X obj 1645 714 - 100;
#X obj 1722 694 env~;
#X obj 1721 717 - 100;
#X obj 1493 692 env~;
#X obj 1492 715 - 100;
#X obj 1569 691 env~;
#X obj 1568 714 - 100;
#X obj 1340 696 env~;
#X obj 1339 719 - 100;
#X obj 1416 697 env~;
#X obj 1415 720 - 100;
#X obj 940 855 env~;
#X obj 939 878 - 100;
#X obj 1025 857 env~;
#X obj 1024 880 - 100;
#X obj 984 856 env~;
#X obj 983 879 - 100;
#X obj 1069 858 env~;
#X obj 1068 881 - 100;
#X obj 930 904 s Vmq1;
#X obj 977 904 s Vmq2;
#X obj 1024 904 s Vmq3;
#X obj 1071 904 s Vmq4;
#X obj 1339 743 s Vms1a;
#X obj 1413 745 s Vms1b;
#X obj 1493 739 s Vms2a;
#X obj 1567 741 s Vms2b;
#X obj 1718 740 s Vms3b;
#X obj 1645 738 s Vms3a;
#X obj 1256 980 s Vms4a;
#X obj 1344 982 s Vms4b;
#X obj 1469 981 s Vms5a;
#X obj 1545 984 s Vms5b;
#X obj 1624 983 s Vms6a;
#X obj 1700 986 s Vms6b;
#X obj 1318 447 s~ MRl;
#X obj 1379 447 s~ MRr;
#X obj 1174 760 r~ MRl;
#X obj 1223 761 r~ MRr;
#X obj 1800 832 r~ MRl;
#X obj 1849 833 r~ MRr;
#X obj 1811 597 r~ MRl;
#X obj 1860 598 r~ MRr;
#X obj 411 944 s~ Sp1;
#X obj 523 918 s~ Sp2;
#X obj 485 943 s~ Sp3;
#X obj 440 916 s~ Sp4;
#X obj 957 727 r~ Sp4;
#X obj 957 660 r~ Sp1;
#X obj 957 705 r~ Sp3;
#X obj 957 682 r~ Sp2;
#X obj 1791 570 r~ Sp1;
#X obj 1779 802 r~ Sp1;
#X obj 760 616 tgl 15 0 empty empty Rec 17 7 0 10 -258113 -1 -1 0 1
;
#X obj 760 578 bng 15 250 50 0 empty empty Start 17 7 0 10 -262144
-1 -1;
#X msg 601 883 start;
#X msg 601 904 stop;
#X obj 760 597 bng 15 250 50 0 empty empty Stop 17 7 0 10 -262144 -1
-1;
#X obj 601 862 delay 5;
#N canvas 0 23 682 536 chrono 0;
#X obj 286 250 s sec;
#X obj 289 295 s min;
#X obj 309 105 r tog;
#X obj 340 225 f;
#X obj 383 225 + 1;
#X msg 365 149 0;
#X obj 339 201 f;
#X obj 382 201 + 1;
#X obj 339 301 t b b;
#X obj 297 222 -1;
#X obj 339 251 == 60;
#X msg 339 327 0;
#X obj 279 151 metro 1000;
#X obj 339 275 sel 1;
#X connect 2 0 12 0;
#X connect 2 0 5 0;
#X connect 3 0 4 0;
#X connect 3 0 1 0;
#X connect 4 0 3 1;
#X connect 5 0 3 0;
#X connect 5 0 6 0;
#X connect 6 0 7 0;
#X connect 6 0 9 0;
#X connect 6 0 10 0;
#X connect 7 0 6 1;
#X connect 8 0 11 0;
#X connect 8 1 3 0;
#X connect 9 0 0 0;
#X connect 10 0 13 0;
#X connect 11 0 6 0;
#X connect 12 0 6 0;
#X connect 13 0 8 0;
#X restore 248 699 pd chrono;
#X obj 788 314 nbx 2 20 -1e+37 1e+37 0 0 empty min empty 0 -8 0 10
-262144 -1 -1 0 256;
#X obj 820 314 nbx 2 20 -1e+37 1e+37 0 0 empty sec empty 0 -8 0 10
-262144 -1 -1 0 256;
#X obj 716 315 tgl 18 0 tog empty CHRONO 25 10 0 10 -260097 -1 -262144
0 1;
#X obj 601 984 writesf~ 2;
#X obj 669 876 faustgen~ ambi-st;
#X obj 669 954 faustgen~ limiter-st;
#X obj 689 903 *~;
#X obj 747 903 *~;
#X obj 669 929 *~;
#X obj 727 929 *~;
#X obj 782 910 r~ Mst;
#X obj 831 911 r~ MRl;
#X obj 831 931 r~ MRr;
#X msg 601 840 open Now&Elsewhere-MixSt.wav;
#X obj 709 987 env~;
#X obj 708 1010 - 100;
#X obj 794 989 env~;
#X obj 793 1012 - 100;
#X obj 704 1034 s VmsL;
#X obj 792 1036 s VmsR;
#X obj 863 444 vu 15 200 VmsL empty -1 -8 0 10 -66577 -1 0 0;
#X obj 887 444 vu 15 200 VmsR empty -1 -8 0 10 -66577 -1 1 0;
#X obj 373 706 loadbang;
#X obj 978 224 *~;
#X obj 961 197 osc~;
#X obj 1002 202 line~;
#X msg 1003 180 \$1 5;
#X floatatom 545 77 0 20 20000 2 Freq - -;
#X floatatom 584 77 0 0 1 2 Vol - -;
#X floatatom 115 421 3 0 0 0 - - -;
#X floatatom 201 421 3 0 0 0 - - -;
#X floatatom 287 421 3 0 0 0 - - -;
#X floatatom 373 421 3 0 0 0 - - -;
#X floatatom 459 421 3 0 0 0 - - -;
#X obj 859 364 nbx 5 18 -1e+37 1e+37 0 0 empty empty empty 0 -8 0 10
-262144 -1 -1 -2.28 256;
#X obj 1839 570 r~ Sp4;
#X obj 1827 802 r~ Sp4;
#X obj 433 803 osc~;
#X obj 493 804 osc~;
#X obj 433 755 *~ 2;
#X obj 433 779 -~ 1;
#X obj 493 780 -~ 1;
#X obj 493 756 *~ 2;
#X obj 433 851 +~ 1;
#X obj 493 852 +~ 1;
#X obj 796 883 r~ Sp1;
#X obj 844 883 r~ Sp4;
#X msg 29 -181 1;
#X msg 29 -160 0;
#X msg 16 -233 open ../sound/theoryofbending.aiff;
#X obj 16 -256 bng 15 250 50 0 empty Play empty 17 7 0 10 -262144 -1
-1;
#X obj 1330 108 r~ PlayL;
#X obj 1204 23 r~ PlayR;
#X obj 20 -110 s~ PlayL;
#X obj 86 -110 s~ PlayR;
#X obj 568 135 bng 15 250 50 0 Play empty Play -26 7 0 10 -262144 -1
-1;
#X obj 55 -203 del 5;
#X obj 568 154 bng 15 250 50 0 Stop empty Stop -26 7 0 10 -262144 -1
-1;
#X obj 64 -178 bng 15 250 50 0 empty Stop empty 17 7 0 10 -262144 -1
-1;
#X obj 20 -135 readsf~ 2 1e+06;
#X floatatom -59 799 5 0 0 0 - - -;
#X obj -59 820 / 127;
#X obj -60 843 * 3;
#X obj -60 866 s md1;
#X obj -56 766 ctlin 21;
#X floatatom 10 799 5 0 0 0 - - -;
#X obj 10 820 / 127;
#X obj 9 842 * 3;
#X floatatom 74 799 5 0 0 0 - - -;
#X obj 74 820 / 127;
#X obj 73 842 * 3;
#X floatatom 140 799 5 0 0 0 - - -;
#X obj 140 820 / 127;
#X obj 139 842 * 3;
#X floatatom -66 932 5 0 0 0 - - -;
#X obj -66 953 / 127;
#X obj -66 978 * 3;
#X floatatom -1 933 5 0 0 0 - - -;
#X obj -1 954 / 127;
#X obj -1 976 * 3;
#X obj 13 766 ctlin 22;
#X obj 9 866 s md2;
#X obj 73 866 s md3;
#X obj 77 766 ctlin 23;
#X obj 143 766 ctlin 24;
#X obj 139 866 s md4;
#X obj -67 999 s md5;
#X obj -63 899 ctlin 25;
#X obj 2 900 ctlin 26;
#X obj -2 1000 s md6;
#X floatatom 67 934 5 0 0 0 - - -;
#X obj 67 955 / 127;
#X floatatom 132 935 5 0 0 0 - - -;
#X obj 132 956 / 127;
#X obj 132 978 * 3;
#X obj 67 980 * 2;
#X obj 66 1001 s md7;
#X obj 131 1002 s md8;
#X obj 70 901 ctlin 27;
#X obj 135 902 ctlin 28;
#X floatatom 236 887 5 0 0 0 - - -;
#X obj 236 908 / 127;
#X obj 239 854 ctlin 48;
#X obj 235 979 s md9;
#X obj 236 930 * 20;
#X obj 236 955 - 10;
#X msg 373 729 -2.28;
#X obj 1138 860 dac~ 1 2 3 4;
#X msg -523 36 connect locus.creacast.com gary_gmo_dunes1.ogg 9001
;
#X obj 14 179 bng 15 250 50 0 empty empty empty 17 7 0 10 -262144 -1
-1;
#X obj 14 202 bng 15 250 50 0 empty empty empty 17 7 0 10 -262144 -1
-1;
#X connect 0 0 112 0;
#X connect 1 0 175 0;
#X connect 2 0 175 0;
#X connect 3 0 175 0;
#X connect 4 0 175 0;
#X connect 5 0 2 0;
#X connect 5 0 3 0;
#X connect 5 0 4 0;
#X connect 5 0 154 0;
#X connect 6 0 111 0;
#X connect 7 0 176 0;
#X connect 8 0 176 0;
#X connect 9 0 176 0;
#X connect 10 0 176 0;
#X connect 11 0 8 0;
#X connect 11 0 9 0;
#X connect 11 0 10 0;
#X connect 11 0 130 0;
#X connect 12 0 113 0;
#X connect 13 0 177 0;
#X connect 14 0 177 0;
#X connect 15 0 177 0;
#X connect 16 0 177 0;
#X connect 17 0 14 0;
#X connect 17 0 15 0;
#X connect 17 0 16 0;
#X connect 17 0 131 0;
#X connect 18 0 116 0;
#X connect 19 0 180 0;
#X connect 20 0 180 0;
#X connect 21 0 180 0;
#X connect 22 0 180 0;
#X connect 23 0 20 0;
#X connect 23 0 21 0;
#X connect 23 0 22 0;
#X connect 23 0 134 0;
#X connect 24 0 115 0;
#X connect 25 0 179 0;
#X connect 26 0 179 0;
#X connect 27 0 179 0;
#X connect 28 0 179 0;
#X connect 29 0 26 0;
#X connect 29 0 27 0;
#X connect 29 0 28 0;
#X connect 29 0 133 0;
#X connect 30 0 114 0;
#X connect 31 0 178 0;
#X connect 32 0 178 0;
#X connect 33 0 178 0;
#X connect 34 0 178 0;
#X connect 35 0 32 0;
#X connect 35 0 33 0;
#X connect 35 0 34 0;
#X connect 35 0 132 0;
#X connect 36 0 37 0;
#X connect 39 0 38 0;
#X connect 39 1 40 0;
#X connect 41 0 39 0;
#X connect 42 0 43 0;
#X connect 43 0 44 0;
#X connect 45 0 46 0;
#X connect 45 1 47 0;
#X connect 48 0 169 0;
#X connect 49 0 213 0;
#X connect 50 0 170 0;
#X connect 51 0 214 0;
#X connect 52 0 171 0;
#X connect 53 0 215 0;
#X connect 54 0 172 0;
#X connect 55 0 230 0;
#X connect 56 0 173 0;
#X connect 57 0 216 0;
#X connect 58 0 174 0;
#X connect 59 0 217 0;
#X connect 60 0 77 0;
#X connect 60 0 61 0;
#X connect 62 0 80 0;
#X connect 62 0 498 0;
#X connect 63 0 83 0;
#X connect 63 0 499 0;
#X connect 64 0 84 0;
#X connect 64 0 500 0;
#X connect 65 0 85 0;
#X connect 65 0 501 0;
#X connect 66 0 86 0;
#X connect 66 0 502 0;
#X connect 67 0 121 0;
#X connect 68 0 120 0;
#X connect 69 0 119 0;
#X connect 70 0 117 0;
#X connect 71 0 118 0;
#X connect 72 0 170 0;
#X connect 73 0 171 0;
#X connect 74 0 172 0;
#X connect 75 0 173 0;
#X connect 76 0 174 0;
#X connect 77 0 79 0;
#X connect 78 0 77 1;
#X connect 80 0 82 0;
#X connect 81 0 80 1;
#X connect 83 0 135 0;
#X connect 84 0 141 0;
#X connect 85 0 139 0;
#X connect 86 0 138 0;
#X connect 87 0 48 0;
#X connect 88 0 50 0;
#X connect 89 0 52 0;
#X connect 90 0 54 0;
#X connect 91 0 56 0;
#X connect 92 0 58 0;
#X connect 93 0 169 0;
#X connect 94 0 170 0;
#X connect 95 0 171 0;
#X connect 96 0 172 0;
#X connect 97 0 174 0;
#X connect 98 0 173 0;
#X connect 99 0 5 0;
#X connect 100 0 11 0;
#X connect 101 0 17 0;
#X connect 102 0 23 0;
#X connect 103 0 29 0;
#X connect 104 0 35 0;
#X connect 105 0 1 0;
#X connect 106 0 7 0;
#X connect 107 0 13 0;
#X connect 108 0 31 0;
#X connect 109 0 25 0;
#X connect 110 0 19 0;
#X connect 123 0 122 0;
#X connect 130 0 176 0;
#X connect 131 0 177 0;
#X connect 132 0 178 0;
#X connect 133 0 179 0;
#X connect 134 0 180 0;
#X connect 136 0 83 1;
#X connect 137 0 86 1;
#X connect 140 0 85 1;
#X connect 142 0 84 1;
#X connect 147 0 153 0;
#X connect 148 0 72 0;
#X connect 149 0 73 0;
#X connect 150 0 74 0;
#X connect 151 0 75 0;
#X connect 152 0 76 0;
#X connect 153 0 169 0;
#X connect 154 0 175 0;
#X connect 155 0 153 0;
#X connect 156 0 72 0;
#X connect 157 0 73 0;
#X connect 158 0 74 0;
#X connect 159 0 75 0;
#X connect 160 0 76 0;
#X connect 161 0 5 0;
#X connect 162 0 11 0;
#X connect 163 0 17 0;
#X connect 164 0 23 0;
#X connect 165 0 29 0;
#X connect 166 0 35 0;
#X connect 167 0 39 0;
#X connect 168 0 45 0;
#X connect 169 0 49 0;
#X connect 169 0 60 0;
#X connect 169 1 70 0;
#X connect 170 0 51 0;
#X connect 170 0 62 0;
#X connect 170 1 71 0;
#X connect 171 0 53 0;
#X connect 171 0 63 0;
#X connect 171 1 69 0;
#X connect 172 0 55 0;
#X connect 172 0 64 0;
#X connect 172 1 68 0;
#X connect 173 0 57 0;
#X connect 173 0 65 0;
#X connect 173 1 67 0;
#X connect 174 0 59 0;
#X connect 174 0 66 0;
#X connect 174 1 123 0;
#X connect 175 0 0 0;
#X connect 176 0 6 0;
#X connect 177 0 12 0;
#X connect 178 0 30 0;
#X connect 179 0 24 0;
#X connect 180 0 18 0;
#X connect 181 0 183 0;
#X connect 181 0 209 0;
#X connect 183 0 184 0;
#X connect 184 0 182 0;
#X connect 185 0 335 0;
#X connect 185 0 352 0;
#X connect 186 0 212 0;
#X connect 186 0 212 1;
#X connect 187 0 350 0;
#X connect 188 0 190 0;
#X connect 188 0 209 1;
#X connect 190 0 191 0;
#X connect 191 0 189 0;
#X connect 192 0 354 0;
#X connect 193 0 212 0;
#X connect 193 0 212 1;
#X connect 194 0 348 0;
#X connect 196 0 356 0;
#X connect 198 0 358 0;
#X connect 200 0 360 0;
#X connect 202 0 362 0;
#X connect 203 0 346 0;
#X connect 204 0 344 0;
#X connect 205 0 342 0;
#X connect 206 0 340 0;
#X connect 207 0 239 0;
#X connect 207 0 241 0;
#X connect 207 1 240 0;
#X connect 207 1 242 0;
#X connect 208 0 275 0;
#X connect 208 0 277 0;
#X connect 208 1 276 0;
#X connect 208 1 278 0;
#X connect 208 2 279 0;
#X connect 208 2 281 0;
#X connect 208 3 280 0;
#X connect 208 3 282 0;
#X connect 209 0 208 0;
#X connect 209 0 243 0;
#X connect 209 0 261 0;
#X connect 209 0 249 0;
#X connect 209 0 255 0;
#X connect 209 0 267 0;
#X connect 209 0 473 0;
#X connect 209 1 208 1;
#X connect 209 1 207 1;
#X connect 209 1 261 1;
#X connect 209 1 249 1;
#X connect 209 1 255 1;
#X connect 209 1 267 1;
#X connect 209 1 473 1;
#X connect 209 2 208 2;
#X connect 209 2 207 2;
#X connect 209 2 243 2;
#X connect 209 2 249 2;
#X connect 209 2 255 2;
#X connect 209 2 267 2;
#X connect 209 2 473 2;
#X connect 209 3 208 3;
#X connect 209 3 207 3;
#X connect 209 3 243 3;
#X connect 209 3 261 3;
#X connect 209 3 255 3;
#X connect 209 3 267 3;
#X connect 209 3 473 3;
#X connect 209 4 208 4;
#X connect 209 4 207 4;
#X connect 209 4 243 4;
#X connect 209 4 261 4;
#X connect 209 4 249 4;
#X connect 209 4 267 4;
#X connect 209 4 473 4;
#X connect 209 5 208 5;
#X connect 209 5 207 5;
#X connect 209 5 243 5;
#X connect 209 5 261 5;
#X connect 209 5 249 5;
#X connect 209 5 255 5;
#X connect 209 5 473 5;
#X connect 210 0 420 0;
#X connect 210 0 576 0;
#X connect 210 1 424 0;
#X connect 210 1 576 1;
#X connect 210 2 422 0;
#X connect 210 2 576 2;
#X connect 210 3 426 0;
#X connect 210 3 576 3;
#X connect 211 0 306 0;
#X connect 211 0 416 0;
#X connect 211 1 289 0;
#X connect 211 1 418 0;
#X connect 212 0 325 0;
#X connect 212 1 328 0;
#X connect 218 0 181 0;
#X connect 218 0 186 0;
#X connect 219 0 188 0;
#X connect 219 0 193 0;
#X connect 220 0 221 0;
#X connect 220 0 209 2;
#X connect 221 0 222 0;
#X connect 222 0 195 0;
#X connect 223 0 212 0;
#X connect 223 0 212 1;
#X connect 224 0 225 0;
#X connect 224 0 209 3;
#X connect 225 0 226 0;
#X connect 226 0 197 0;
#X connect 227 0 212 0;
#X connect 227 0 212 1;
#X connect 228 0 220 0;
#X connect 228 0 223 0;
#X connect 229 0 224 0;
#X connect 229 0 227 0;
#X connect 231 0 232 0;
#X connect 231 0 209 4;
#X connect 232 0 233 0;
#X connect 233 0 199 0;
#X connect 234 0 212 0;
#X connect 234 0 212 1;
#X connect 235 0 236 0;
#X connect 235 0 209 5;
#X connect 236 0 237 0;
#X connect 237 0 201 0;
#X connect 238 0 212 0;
#X connect 238 0 212 1;
#X connect 239 0 241 0;
#X connect 240 0 242 0;
#X connect 241 0 211 0;
#X connect 242 0 211 1;
#X connect 243 0 245 0;
#X connect 243 0 247 0;
#X connect 243 1 246 0;
#X connect 243 1 248 0;
#X connect 244 0 305 0;
#X connect 244 0 412 0;
#X connect 244 1 290 0;
#X connect 244 1 414 0;
#X connect 245 0 247 0;
#X connect 246 0 248 0;
#X connect 247 0 244 0;
#X connect 248 0 244 1;
#X connect 249 0 251 0;
#X connect 249 0 253 0;
#X connect 249 1 252 0;
#X connect 249 1 254 0;
#X connect 250 0 303 0;
#X connect 250 0 396 0;
#X connect 250 1 292 0;
#X connect 250 1 398 0;
#X connect 251 0 253 0;
#X connect 252 0 254 0;
#X connect 253 0 250 0;
#X connect 254 0 250 1;
#X connect 255 0 257 0;
#X connect 255 0 259 0;
#X connect 255 1 258 0;
#X connect 255 1 260 0;
#X connect 256 0 302 0;
#X connect 256 0 400 0;
#X connect 256 1 293 0;
#X connect 256 1 402 0;
#X connect 257 0 259 0;
#X connect 258 0 260 0;
#X connect 259 0 256 0;
#X connect 260 0 256 1;
#X connect 261 0 263 0;
#X connect 261 0 265 0;
#X connect 261 1 264 0;
#X connect 261 1 266 0;
#X connect 262 0 304 0;
#X connect 262 0 408 0;
#X connect 262 1 291 0;
#X connect 262 1 410 0;
#X connect 263 0 265 0;
#X connect 264 0 266 0;
#X connect 265 0 262 0;
#X connect 266 0 262 1;
#X connect 267 0 269 0;
#X connect 267 0 271 0;
#X connect 267 1 270 0;
#X connect 267 1 272 0;
#X connect 268 0 301 0;
#X connect 268 0 404 0;
#X connect 268 1 294 0;
#X connect 268 1 406 0;
#X connect 269 0 271 0;
#X connect 270 0 272 0;
#X connect 271 0 268 0;
#X connect 272 0 268 1;
#X connect 273 0 235 0;
#X connect 273 0 238 0;
#X connect 274 0 231 0;
#X connect 274 0 234 0;
#X connect 275 0 277 0;
#X connect 276 0 278 0;
#X connect 277 0 210 0;
#X connect 278 0 210 1;
#X connect 279 0 281 0;
#X connect 280 0 282 0;
#X connect 281 0 210 2;
#X connect 282 0 210 3;
#X connect 283 0 175 1;
#X connect 284 0 176 1;
#X connect 285 0 177 1;
#X connect 286 0 180 1;
#X connect 287 0 179 1;
#X connect 288 0 178 1;
#X connect 295 0 175 0;
#X connect 296 0 176 0;
#X connect 297 0 177 0;
#X connect 298 0 180 0;
#X connect 299 0 179 0;
#X connect 300 0 178 0;
#X connect 308 0 364 0;
#X connect 312 0 369 0;
#X connect 313 0 365 0;
#X connect 314 0 212 0;
#X connect 315 0 212 0;
#X connect 316 0 212 0;
#X connect 317 0 318 0;
#X connect 317 0 319 0;
#X connect 317 0 320 0;
#X connect 317 0 333 0;
#X connect 318 0 321 0;
#X connect 318 0 323 0;
#X connect 319 0 206 0;
#X connect 320 0 322 0;
#X connect 321 0 314 0;
#X connect 322 0 316 0;
#X connect 323 0 315 0;
#X connect 324 0 338 0;
#X connect 325 0 326 0;
#X connect 325 0 444 0;
#X connect 326 0 327 0;
#X connect 327 0 331 0;
#X connect 328 0 329 0;
#X connect 328 0 445 0;
#X connect 329 0 330 0;
#X connect 330 0 332 0;
#X connect 333 0 187 0;
#X connect 333 0 194 0;
#X connect 333 0 203 0;
#X connect 333 0 204 0;
#X connect 333 0 205 0;
#X connect 334 0 336 0;
#X connect 335 0 336 0;
#X connect 336 0 185 0;
#X connect 336 0 192 0;
#X connect 336 0 196 0;
#X connect 336 0 198 0;
#X connect 336 0 200 0;
#X connect 336 0 202 0;
#X connect 337 0 328 1;
#X connect 337 0 325 1;
#X connect 338 0 337 0;
#X connect 339 0 238 1;
#X connect 340 0 339 0;
#X connect 341 0 234 1;
#X connect 342 0 341 0;
#X connect 343 0 227 1;
#X connect 344 0 343 0;
#X connect 345 0 223 1;
#X connect 346 0 345 0;
#X connect 347 0 193 1;
#X connect 348 0 347 0;
#X connect 349 0 186 1;
#X connect 350 0 349 0;
#X connect 351 0 181 1;
#X connect 352 0 351 0;
#X connect 353 0 188 1;
#X connect 354 0 353 0;
#X connect 355 0 220 1;
#X connect 356 0 355 0;
#X connect 357 0 224 1;
#X connect 358 0 357 0;
#X connect 359 0 231 1;
#X connect 360 0 359 0;
#X connect 361 0 235 1;
#X connect 362 0 361 0;
#X connect 363 0 277 1;
#X connect 363 0 278 1;
#X connect 363 0 281 1;
#X connect 363 0 282 1;
#X connect 364 0 363 0;
#X connect 365 0 308 0;
#X connect 366 0 272 1;
#X connect 366 0 271 1;
#X connect 366 0 260 1;
#X connect 366 0 259 1;
#X connect 366 0 254 1;
#X connect 366 0 253 1;
#X connect 367 0 266 1;
#X connect 367 0 265 1;
#X connect 367 0 248 1;
#X connect 367 0 247 1;
#X connect 367 0 242 1;
#X connect 367 0 241 1;
#X connect 368 0 370 0;
#X connect 369 0 368 0;
#X connect 383 0 508 0;
#X connect 384 0 512 0;
#X connect 385 0 511 0;
#X connect 386 0 513 0;
#X connect 387 0 453 0;
#X connect 388 0 385 0;
#X connect 389 0 455 0;
#X connect 390 0 452 0;
#X connect 391 0 454 0;
#X connect 392 0 383 0;
#X connect 392 0 388 0;
#X connect 392 0 503 0;
#X connect 393 0 395 0;
#X connect 394 0 389 1;
#X connect 394 0 387 1;
#X connect 394 0 390 1;
#X connect 394 0 391 1;
#X connect 395 0 394 0;
#X connect 396 0 397 0;
#X connect 397 0 438 0;
#X connect 398 0 399 0;
#X connect 399 0 439 0;
#X connect 400 0 401 0;
#X connect 401 0 440 0;
#X connect 402 0 403 0;
#X connect 403 0 441 0;
#X connect 404 0 405 0;
#X connect 405 0 442 0;
#X connect 406 0 407 0;
#X connect 407 0 443 0;
#X connect 408 0 409 0;
#X connect 409 0 437 0;
#X connect 410 0 411 0;
#X connect 411 0 436 0;
#X connect 412 0 413 0;
#X connect 413 0 434 0;
#X connect 414 0 415 0;
#X connect 415 0 435 0;
#X connect 416 0 417 0;
#X connect 417 0 432 0;
#X connect 418 0 419 0;
#X connect 419 0 433 0;
#X connect 420 0 421 0;
#X connect 421 0 428 0;
#X connect 422 0 423 0;
#X connect 423 0 430 0;
#X connect 424 0 425 0;
#X connect 425 0 429 0;
#X connect 426 0 427 0;
#X connect 427 0 431 0;
#X connect 446 0 277 0;
#X connect 446 0 281 0;
#X connect 447 0 278 0;
#X connect 447 0 282 0;
#X connect 448 0 253 0;
#X connect 448 0 259 0;
#X connect 448 0 271 0;
#X connect 449 0 254 0;
#X connect 449 0 260 0;
#X connect 449 0 272 0;
#X connect 450 0 241 0;
#X connect 450 0 247 0;
#X connect 450 0 265 0;
#X connect 451 0 242 0;
#X connect 451 0 248 0;
#X connect 451 0 266 0;
#X connect 456 0 280 1;
#X connect 457 0 275 1;
#X connect 458 0 279 1;
#X connect 459 0 276 1;
#X connect 460 0 239 1;
#X connect 460 0 245 1;
#X connect 460 0 263 1;
#X connect 461 0 251 1;
#X connect 461 0 257 1;
#X connect 461 0 269 1;
#X connect 463 0 462 0;
#X connect 463 0 467 0;
#X connect 463 0 482 0;
#X connect 464 0 472 0;
#X connect 465 0 472 0;
#X connect 466 0 465 0;
#X connect 466 0 462 0;
#X connect 467 0 464 0;
#X connect 473 0 475 0;
#X connect 473 0 477 0;
#X connect 473 1 476 0;
#X connect 473 1 478 0;
#X connect 474 0 472 0;
#X connect 474 0 483 0;
#X connect 474 1 472 1;
#X connect 474 1 485 0;
#X connect 475 0 477 0;
#X connect 476 0 478 0;
#X connect 477 0 474 0;
#X connect 478 0 474 1;
#X connect 479 0 478 1;
#X connect 479 0 477 1;
#X connect 480 0 477 0;
#X connect 481 0 478 0;
#X connect 482 0 472 0;
#X connect 483 0 484 0;
#X connect 484 0 487 0;
#X connect 485 0 486 0;
#X connect 486 0 488 0;
#X connect 491 0 575 0;
#X connect 492 0 186 0;
#X connect 492 0 193 0;
#X connect 492 0 223 0;
#X connect 492 0 227 0;
#X connect 492 0 234 0;
#X connect 492 0 238 0;
#X connect 492 0 181 0;
#X connect 492 0 188 0;
#X connect 492 0 220 0;
#X connect 492 0 224 0;
#X connect 492 0 231 0;
#X connect 492 0 235 0;
#X connect 493 0 492 0;
#X connect 494 0 492 1;
#X connect 495 0 494 0;
#X connect 496 0 493 0;
#X connect 497 0 495 0;
#X connect 504 0 240 1;
#X connect 504 0 246 1;
#X connect 504 0 264 1;
#X connect 505 0 252 1;
#X connect 505 0 258 1;
#X connect 505 0 270 1;
#X connect 506 0 384 0;
#X connect 506 0 390 0;
#X connect 507 0 386 0;
#X connect 507 0 391 0;
#X connect 508 0 509 0;
#X connect 509 0 506 0;
#X connect 510 0 507 0;
#X connect 511 0 510 0;
#X connect 512 0 389 0;
#X connect 513 0 387 0;
#X connect 514 0 475 1;
#X connect 515 0 476 1;
#X connect 516 0 528 0;
#X connect 517 0 528 0;
#X connect 518 0 528 0;
#X connect 519 0 518 0;
#X connect 519 0 525 0;
#X connect 520 0 235 0;
#X connect 521 0 220 0;
#X connect 525 0 516 0;
#X connect 527 0 517 0;
#X connect 528 0 522 0;
#X connect 528 1 523 0;
#X connect 529 0 530 0;
#X connect 530 0 531 0;
#X connect 531 0 532 0;
#X connect 533 0 529 0;
#X connect 534 0 535 0;
#X connect 535 0 536 0;
#X connect 536 0 550 0;
#X connect 537 0 538 0;
#X connect 538 0 539 0;
#X connect 539 0 551 0;
#X connect 540 0 541 0;
#X connect 541 0 542 0;
#X connect 542 0 554 0;
#X connect 543 0 544 0;
#X connect 544 0 545 0;
#X connect 545 0 555 0;
#X connect 546 0 547 0;
#X connect 547 0 548 0;
#X connect 548 0 558 0;
#X connect 549 0 534 0;
#X connect 552 0 537 0;
#X connect 553 0 540 0;
#X connect 556 0 543 0;
#X connect 557 0 546 0;
#X connect 559 0 560 0;
#X connect 560 0 564 0;
#X connect 561 0 562 0;
#X connect 562 0 563 0;
#X connect 563 0 566 0;
#X connect 564 0 565 0;
#X connect 567 0 559 0;
#X connect 568 0 561 0;
#X connect 569 0 570 0;
#X connect 570 0 573 0;
#X connect 571 0 569 0;
#X connect 573 0 574 0;
#X connect 574 0 572 0;
#X connect 575 0 392 0;
#X connect 577 0 171 0;
#X connect 578 0 577 0;
#X connect 579 0 52 0;
#X coords 0 1 100 -1 950 670 1 0 0;
#X restore 44 52 graph;
#X text 385 279 MASTER REVERB;
#X text 384 79 SEND TO MASTER REVERB;
#X text 742 322 STREAMS BUS LEVEL;
#X text 71 444 INPUT STREAMS MIXER;
#X text 87 395 X = connecté / Bang = reconnecte;
#X text 584 90 Test Tone;
