#N canvas 471 216 482 526 12;
#X obj 102 62 cnv 15 270 380 empty empty StreamBox-Gregoire 110 25
0 14 -128992 -1 0;
#N canvas 199 36 1416 893 (subpatch) 0;
#X obj 79 108 vu 15 200 empty empty -1 -8 0 10 -66577 -1 1 0;
#X obj 53 107 vsl 20 200 0 1 0 0 empty empty YOU 1 210 0 10 -66577
-260097 -1 13700 1;
#X obj -155 144 loadbang;
#X msg -155 163 set \$1;
#X msg -157 188 0.688442;
#X msg 419 359 \$1 5;
#X obj 419 380 line~;
#X obj 399 402 *~;
#X msg -239 415 disconnect;
#X obj -263 509 hip~ 10;
#X obj -258 466 env~;
#X floatatom -258 488 4 0 0 0 - - -;
#X obj -205 509 hip~ 10;
#X obj -197 467 env~;
#X floatatom -197 489 4 0 0 0 - - -;
#X obj -263 341 r on;
#X obj -239 395 r off;
#N canvas 366 218 603 554 re-connect 0;
#X obj 29 108 inlet;
#X obj 30 171 bng 15 250 50 0 empty empty empty 0 -6 0 8 -262144 -1
-1;
#X obj 96 119 tgl 15 0 empty empty empty 0 -6 0 8 -262144 -1 -1 0 1
;
#X obj 120 432 spigot;
#X obj 96 96 inlet;
#X obj 95 213 + 1;
#X msg 95 190 1;
#X floatatom 155 265 5 0 0 0 - - -;
#X msg 95 261 0;
#X obj 127 289 bng 15 250 50 0 empty empty empty 0 -6 0 8 -262144 -1
-1;
#X obj 214 427 print re-connect;
#X obj 30 135 change;
#X msg 159 393 1;
#X msg 127 393 0;
#X obj 120 468 outlet;
#X obj 95 237 select 5;
#X obj 96 166 metro 5000;
#X obj 150 338 del 10000;
#X connect 0 0 11 0;
#X connect 1 0 8 0;
#X connect 2 0 3 1;
#X connect 2 0 16 0;
#X connect 3 0 14 0;
#X connect 4 0 2 0;
#X connect 5 0 15 0;
#X connect 6 0 5 0;
#X connect 7 0 5 1;
#X connect 8 0 7 0;
#X connect 9 0 17 0;
#X connect 9 0 13 0;
#X connect 11 0 1 0;
#X connect 12 0 10 0;
#X connect 12 0 3 0;
#X connect 13 0 10 0;
#X connect 13 0 3 0;
#X connect 15 0 8 0;
#X connect 15 0 9 0;
#X connect 15 1 7 0;
#X connect 16 0 6 0;
#X connect 17 0 12 0;
#X restore -148 509 pd re-connect;
#X obj -85 486 r on;
#X obj -148 531 s re;
#X obj -148 397 loadbang;
#X msg -148 420 recover 0;
#X msg -152 554 \$1 5;
#X obj -263 592 *~;
#X obj -205 592 *~;
#X obj -152 574 line~;
#X obj -263 624 env~;
#X obj -222 625 env~;
#X obj -263 646 - 100;
#X obj -222 647 - 100;
#X floatatom 173 76 2 0 0 0 - - -;
#X text 108 78 Status;
#X obj -263 440 oggamp~ 0 2 96;
#X obj 160 708 dac~ 1 2;
#X obj 165 108 vu 15 200 empty empty -1 -8 0 10 -66577 -1 0 0;
#X obj 139 107 vsl 20 200 0 1 0 0 empty empty ALL 1 210 0 10 -66577
-260097 -1 13700 1;
#X obj 182 108 vu 15 200 empty empty -1 -8 0 10 -66577 -1 1 0;
#X obj -173 11 s on;
#X obj 14 18 tgl 20 0 empty empty ON/OFF 25 10 0 10 -4034 -1 -1 0 1
;
#X obj -173 -14 sel 1;
#X obj -139 11 s off;
#X obj -173 -41 r re;
#X floatatom 79 76 2 0 0 0 - - -;
#X msg 506 372 disconnect;
#X msg 433 31 \; pd dsp 1;
#X obj 433 5 loadbang;
#X msg 467 394 server 1;
#X msg 468 420 passwd locusonus1;
#X obj 468 374 bng 15 250 50 0 empty empty empty 17 7 0 10 -262144
-1 -1;
#X obj 397 426 hip~ 5;
#X obj 468 352 r on;
#X obj 506 352 r off;
#X obj 367 458 env~;
#X obj 367 482 - 100;
#X msg 467 444 vbr 44100 1 1;
#N canvas 366 218 603 554 re-connect 0;
#X obj 29 108 inlet;
#X obj 30 171 bng 15 250 50 0 empty empty empty 0 -6 0 8 -262144 -1
-1;
#X obj 96 119 tgl 15 0 empty empty empty 0 -6 0 8 -262144 -1 -1 0 1
;
#X obj 120 432 spigot;
#X obj 96 96 inlet;
#X obj 95 213 + 1;
#X msg 95 190 1;
#X floatatom 155 265 5 0 0 0 - - -;
#X msg 95 261 0;
#X obj 127 289 bng 15 250 50 0 empty empty empty 0 -6 0 8 -262144 -1
-1;
#X obj 214 427 print re-connect;
#X obj 30 135 change;
#X msg 159 393 1;
#X msg 127 393 0;
#X obj 120 468 outlet;
#X obj 95 237 select 5;
#X obj 96 166 metro 5000;
#X obj 150 338 del 10000;
#X connect 0 0 11 0;
#X connect 1 0 8 0;
#X connect 2 0 3 1;
#X connect 2 0 16 0;
#X connect 3 0 14 0;
#X connect 4 0 2 0;
#X connect 5 0 15 0;
#X connect 6 0 5 0;
#X connect 7 0 5 1;
#X connect 8 0 7 0;
#X connect 9 0 17 0;
#X connect 9 0 13 0;
#X connect 11 0 1 0;
#X connect 12 0 10 0;
#X connect 12 0 3 0;
#X connect 13 0 10 0;
#X connect 13 0 3 0;
#X connect 15 0 8 0;
#X connect 15 0 9 0;
#X connect 15 1 7 0;
#X connect 16 0 6 0;
#X connect 17 0 12 0;
#X restore 334 546 pd re-connect;
#X obj 397 523 r on;
#X obj 334 568 s re;
#X floatatom 335 521 4 0 0 0 - - -;
#X obj 79 57 bng 15 250 50 0 empty empty Reconnect 28 7 0 10 -262144
-1 -1;
#X obj 173 57 bng 15 250 50 0 empty empty empty 17 7 0 10 -262144 -1
-1;
#X obj 380 283 adc~ 1 2;
#X obj 416 494 oggcast~ 1 128;
#X msg 463 469 connect locus.creacast.com Gregroire.ogg 9001;
#X msg -261 371 connect locus.creacast.com MixStereoGregroire.ogg 9001
;
#X connect 1 0 3 0;
#X connect 1 0 5 0;
#X connect 2 0 4 0;
#X connect 3 0 4 0;
#X connect 4 0 1 0;
#X connect 4 0 35 0;
#X connect 5 0 6 0;
#X connect 6 0 7 1;
#X connect 7 0 49 0;
#X connect 8 0 32 0;
#X connect 9 0 23 0;
#X connect 10 0 11 0;
#X connect 11 0 17 0;
#X connect 12 0 24 0;
#X connect 13 0 14 0;
#X connect 14 0 17 0;
#X connect 15 0 64 0;
#X connect 16 0 8 0;
#X connect 17 0 19 0;
#X connect 18 0 17 1;
#X connect 20 0 21 0;
#X connect 21 0 32 0;
#X connect 22 0 25 0;
#X connect 23 0 26 0;
#X connect 23 0 33 0;
#X connect 24 0 27 0;
#X connect 24 0 33 1;
#X connect 25 0 23 1;
#X connect 25 0 24 1;
#X connect 26 0 28 0;
#X connect 27 0 29 0;
#X connect 28 0 34 0;
#X connect 29 0 36 1;
#X connect 32 0 9 0;
#X connect 32 0 10 0;
#X connect 32 1 13 0;
#X connect 32 1 12 0;
#X connect 32 2 30 0;
#X connect 35 0 22 0;
#X connect 38 0 39 0;
#X connect 39 0 37 0;
#X connect 39 1 40 0;
#X connect 41 0 39 0;
#X connect 43 0 62 0;
#X connect 45 0 44 0;
#X connect 46 0 62 0;
#X connect 47 0 62 0;
#X connect 48 0 46 0;
#X connect 48 0 47 0;
#X connect 48 0 54 0;
#X connect 48 0 63 0;
#X connect 49 0 52 0;
#X connect 49 0 33 0;
#X connect 49 0 33 1;
#X connect 49 0 62 0;
#X connect 50 0 48 0;
#X connect 51 0 43 0;
#X connect 52 0 53 0;
#X connect 52 0 58 0;
#X connect 53 0 0 0;
#X connect 54 0 62 0;
#X connect 55 0 57 0;
#X connect 56 0 55 1;
#X connect 58 0 55 0;
#X connect 59 0 48 0;
#X connect 60 0 64 0;
#X connect 61 0 7 0;
#X connect 61 1 7 0;
#X connect 62 0 42 0;
#X connect 63 0 62 0;
#X connect 64 0 32 0;
#X coords 0 1 100 -1 250 350 1 0 0;
#X restore 112 76 graph;
#X text 103 462 Status: 1 = Connecté - 0 = Déconnecté;
