#N canvas 614 23 382 536 10;
#X obj 42 34 cnv 15 300 440 empty empty STREAMSBOX 190 12 0 14 -99865
-1 0;
#N canvas -2 73 1440 838 (subpatch) 0;
#X floatatom 498 142 0 0 0 0 - - -;
#X msg 561 18 disconnect;
#X msg 511 56 server 1;
#X msg 511 74 passwd locusonus1;
#X msg 511 92 vbr 44100 2 1;
#X obj 511 18 bng 15 250 50 0 empty empty empty 17 7 0 10 -262144 -1
-1;
#X obj 468 89 *~ 1;
#X obj 437 89 *~ 1;
#X floatatom 680 197 0 0 0 0 - - -;
#X msg 743 78 disconnect;
#X msg 693 114 server 1;
#X msg 693 132 passwd locusonus1;
#X msg 693 150 vbr 44100 2 1;
#X obj 693 78 bng 15 250 50 0 empty empty empty 17 7 0 10 -262144 -1
-1;
#X obj 642 152 *~ 1;
#X obj 595 149 *~ 1;
#X floatatom 859 255 0 0 0 0 - - -;
#X msg 921 138 disconnect;
#X msg 871 174 server 1;
#X msg 871 192 passwd locusonus1;
#X msg 871 210 vbr 44100 2 1;
#X obj 871 138 bng 15 250 50 0 empty empty empty 17 7 0 10 -262144
-1 -1;
#X obj 828 207 *~ 1;
#X obj 796 209 *~ 1;
#X floatatom 442 381 0 0 0 0 - - -;
#X msg 505 262 disconnect;
#X msg 455 298 server 1;
#X msg 455 316 passwd locusonus1;
#X msg 455 334 vbr 44100 2 1;
#X obj 455 262 bng 15 250 50 0 empty empty empty 17 7 0 10 -262144
-1 -1;
#X obj 412 331 *~ 1;
#X obj 381 331 *~ 1;
#X floatatom 607 442 0 0 0 0 - - -;
#X msg 670 323 disconnect;
#X msg 620 359 server 1;
#X msg 620 377 passwd locusonus1;
#X msg 620 395 vbr 44100 2 1;
#X obj 620 323 bng 15 250 50 0 empty empty empty 17 7 0 10 -262144
-1 -1;
#X obj 577 392 *~ 1;
#X obj 547 392 *~ 1;
#X floatatom 764 507 0 0 0 0 - - -;
#X msg 827 388 disconnect;
#X msg 777 424 server 1;
#X msg 777 442 passwd locusonus1;
#X msg 777 460 vbr 44100 2 1;
#X obj 777 388 bng 15 250 50 0 empty empty empty 17 7 0 10 -262144
-1 -1;
#X obj 734 457 *~ 1;
#X obj 701 457 *~ 1;
#X obj 1102 45 loadbang;
#X msg 1102 75 \; pd dsp 1;
#X obj -90 65 s on;
#X obj -90 40 sel 1;
#X obj -56 65 s off;
#X obj -89 13 r re;
#X obj -214 14 loadbang;
#X msg -214 37 recover 0;
#X obj -214 59 s recov;
#X obj 306 48 sel 1;
#X obj 306 73 s on1;
#X obj 343 74 s off1;
#X msg -566 113 disconnect;
#X obj -626 173 hip~ 10;
#X msg -406 136 disconnect;
#X obj -479 196 hip~ 10;
#X msg -257 179 disconnect;
#X obj -325 238 hip~ 10;
#X msg -548 425 disconnect;
#X obj -621 481 hip~ 10;
#X msg -398 456 disconnect;
#X obj -464 516 hip~ 10;
#X msg -239 500 disconnect;
#X obj -311 551 hip~ 10;
#X obj -568 163 env~;
#X floatatom -568 185 4 0 0 0 - - -;
#X obj -427 184 env~;
#X floatatom -427 206 4 0 0 0 - - -;
#X obj -269 227 env~;
#X floatatom -269 249 4 0 0 0 - - -;
#X obj -567 469 env~;
#X floatatom -567 491 4 0 0 0 - - -;
#X obj -411 502 env~;
#X floatatom -411 524 4 0 0 0 - - -;
#X obj -256 547 env~;
#X floatatom -256 569 4 0 0 0 - - -;
#X floatatom -377 502 4 0 0 0 - - -;
#X floatatom -534 468 4 0 0 0 - - -;
#X floatatom -238 227 4 0 0 0 - - -;
#X floatatom -537 163 4 0 0 0 - - -;
#X floatatom -392 182 4 0 0 0 - - -;
#X obj -625 197 *~ 1;
#X obj -479 218 *~ 1;
#X obj -325 261 *~ 1;
#X obj -621 505 *~ 1;
#X obj -465 543 *~ 1;
#X obj -308 570 *~ 1;
#X msg -479 93 connect locus.creacast.com Simon.ogg 9001;
#X msg -324 120 connect locus.creacast.com Steve.ogg 9001;
#X msg -610 378 connect locus.creacast.com Gregroire.ogg 9001;
#X msg -461 418 connect locus.creacast.com Andy.ogg 9001;
#X msg -306 461 connect locus.creacast.com Meryll.ogg 9001;
#N canvas 366 218 603 554 re-connect 0;
#X obj 29 108 inlet;
#X obj 30 171 bng 15 250 50 0 empty empty empty 0 -6 0 8 -262144 -1
-1;
#X obj 96 119 tgl 15 0 empty empty empty 0 -6 0 8 -262144 -1 -1 0 1
;
#X obj 120 432 spigot;
#X obj 96 96 inlet;
#X obj 95 213 + 1;
#X msg 95 190 1;
#X floatatom 155 265 5 0 0 0 - - -;
#X msg 95 261 0;
#X obj 127 289 bng 15 250 50 0 empty empty empty 0 -6 0 8 -262144 -1
-1;
#X obj 214 427 print re-connect;
#X obj 30 135 change;
#X msg 159 393 1;
#X msg 127 393 0;
#X obj 120 468 outlet;
#X obj 95 237 select 5;
#X obj 96 166 metro 5000;
#X obj 150 338 del 10000;
#X connect 0 0 11 0;
#X connect 1 0 8 0;
#X connect 2 0 3 1;
#X connect 2 0 16 0;
#X connect 3 0 14 0;
#X connect 4 0 2 0;
#X connect 5 0 15 0;
#X connect 6 0 5 0;
#X connect 7 0 5 1;
#X connect 8 0 7 0;
#X connect 9 0 17 0;
#X connect 9 0 13 0;
#X connect 11 0 1 0;
#X connect 12 0 10 0;
#X connect 12 0 3 0;
#X connect 13 0 10 0;
#X connect 13 0 3 0;
#X connect 15 0 8 0;
#X connect 15 0 9 0;
#X connect 15 1 7 0;
#X connect 16 0 6 0;
#X connect 17 0 12 0;
#X restore -587 206 pd re-connect;
#X obj -528 183 r on;
#X obj -575 227 s re;
#N canvas 366 218 603 554 re-connect 0;
#X obj 29 108 inlet;
#X obj 30 171 bng 15 250 50 0 empty empty empty 0 -6 0 8 -262144 -1
-1;
#X obj 96 119 tgl 15 0 empty empty empty 0 -6 0 8 -262144 -1 -1 0 1
;
#X obj 120 432 spigot;
#X obj 96 96 inlet;
#X obj 95 213 + 1;
#X msg 95 190 1;
#X floatatom 155 265 5 0 0 0 - - -;
#X msg 95 261 0;
#X obj 127 289 bng 15 250 50 0 empty empty empty 0 -6 0 8 -262144 -1
-1;
#X obj 214 427 print re-connect;
#X obj 30 135 change;
#X msg 159 393 1;
#X msg 127 393 0;
#X obj 120 468 outlet;
#X obj 95 237 select 5;
#X obj 96 166 metro 5000;
#X obj 150 338 del 10000;
#X connect 0 0 11 0;
#X connect 1 0 8 0;
#X connect 2 0 3 1;
#X connect 2 0 16 0;
#X connect 3 0 14 0;
#X connect 4 0 2 0;
#X connect 5 0 15 0;
#X connect 6 0 5 0;
#X connect 7 0 5 1;
#X connect 8 0 7 0;
#X connect 9 0 17 0;
#X connect 9 0 13 0;
#X connect 11 0 1 0;
#X connect 12 0 10 0;
#X connect 12 0 3 0;
#X connect 13 0 10 0;
#X connect 13 0 3 0;
#X connect 15 0 8 0;
#X connect 15 0 9 0;
#X connect 15 1 7 0;
#X connect 16 0 6 0;
#X connect 17 0 12 0;
#X restore -429 226 pd re-connect;
#X obj -380 202 r on;
#X obj -429 248 s re;
#N canvas 366 218 603 554 re-connect 0;
#X obj 29 108 inlet;
#X obj 30 171 bng 15 250 50 0 empty empty empty 0 -6 0 8 -262144 -1
-1;
#X obj 96 119 tgl 15 0 empty empty empty 0 -6 0 8 -262144 -1 -1 0 1
;
#X obj 120 432 spigot;
#X obj 96 96 inlet;
#X obj 95 213 + 1;
#X msg 95 190 1;
#X floatatom 155 265 5 0 0 0 - - -;
#X msg 95 261 0;
#X obj 127 289 bng 15 250 50 0 empty empty empty 0 -6 0 8 -262144 -1
-1;
#X obj 214 427 print re-connect;
#X obj 30 135 change;
#X msg 159 393 1;
#X msg 127 393 0;
#X obj 120 468 outlet;
#X obj 95 237 select 5;
#X obj 96 166 metro 5000;
#X obj 150 338 del 10000;
#X connect 0 0 11 0;
#X connect 1 0 8 0;
#X connect 2 0 3 1;
#X connect 2 0 16 0;
#X connect 3 0 14 0;
#X connect 4 0 2 0;
#X connect 5 0 15 0;
#X connect 6 0 5 0;
#X connect 7 0 5 1;
#X connect 8 0 7 0;
#X connect 9 0 17 0;
#X connect 9 0 13 0;
#X connect 11 0 1 0;
#X connect 12 0 10 0;
#X connect 12 0 3 0;
#X connect 13 0 10 0;
#X connect 13 0 3 0;
#X connect 15 0 8 0;
#X connect 15 0 9 0;
#X connect 15 1 7 0;
#X connect 16 0 6 0;
#X connect 17 0 12 0;
#X restore -279 273 pd re-connect;
#N canvas 366 218 603 554 re-connect 0;
#X obj 29 108 inlet;
#X obj 30 171 bng 15 250 50 0 empty empty empty 0 -6 0 8 -262144 -1
-1;
#X obj 96 119 tgl 15 0 empty empty empty 0 -6 0 8 -262144 -1 -1 0 1
;
#X obj 120 432 spigot;
#X obj 96 96 inlet;
#X obj 95 213 + 1;
#X msg 95 190 1;
#X floatatom 155 265 5 0 0 0 - - -;
#X msg 95 261 0;
#X obj 127 289 bng 15 250 50 0 empty empty empty 0 -6 0 8 -262144 -1
-1;
#X obj 214 427 print re-connect;
#X obj 30 135 change;
#X msg 159 393 1;
#X msg 127 393 0;
#X obj 120 468 outlet;
#X obj 95 237 select 5;
#X obj 96 166 metro 5000;
#X obj 150 338 del 10000;
#X connect 0 0 11 0;
#X connect 1 0 8 0;
#X connect 2 0 3 1;
#X connect 2 0 16 0;
#X connect 3 0 14 0;
#X connect 4 0 2 0;
#X connect 5 0 15 0;
#X connect 6 0 5 0;
#X connect 7 0 5 1;
#X connect 8 0 7 0;
#X connect 9 0 17 0;
#X connect 9 0 13 0;
#X connect 11 0 1 0;
#X connect 12 0 10 0;
#X connect 12 0 3 0;
#X connect 13 0 10 0;
#X connect 13 0 3 0;
#X connect 15 0 8 0;
#X connect 15 0 9 0;
#X connect 15 1 7 0;
#X connect 16 0 6 0;
#X connect 17 0 12 0;
#X restore -581 509 pd re-connect;
#N canvas 366 218 603 554 re-connect 0;
#X obj 29 108 inlet;
#X obj 30 171 bng 15 250 50 0 empty empty empty 0 -6 0 8 -262144 -1
-1;
#X obj 96 119 tgl 15 0 empty empty empty 0 -6 0 8 -262144 -1 -1 0 1
;
#X obj 120 432 spigot;
#X obj 96 96 inlet;
#X obj 95 213 + 1;
#X msg 95 190 1;
#X floatatom 155 265 5 0 0 0 - - -;
#X msg 95 261 0;
#X obj 127 289 bng 15 250 50 0 empty empty empty 0 -6 0 8 -262144 -1
-1;
#X obj 214 427 print re-connect;
#X obj 30 135 change;
#X msg 159 393 1;
#X msg 127 393 0;
#X obj 120 468 outlet;
#X obj 95 237 select 5;
#X obj 96 166 metro 5000;
#X obj 150 338 del 10000;
#X connect 0 0 11 0;
#X connect 1 0 8 0;
#X connect 2 0 3 1;
#X connect 2 0 16 0;
#X connect 3 0 14 0;
#X connect 4 0 2 0;
#X connect 5 0 15 0;
#X connect 6 0 5 0;
#X connect 7 0 5 1;
#X connect 8 0 7 0;
#X connect 9 0 17 0;
#X connect 9 0 13 0;
#X connect 11 0 1 0;
#X connect 12 0 10 0;
#X connect 12 0 3 0;
#X connect 13 0 10 0;
#X connect 13 0 3 0;
#X connect 15 0 8 0;
#X connect 15 0 9 0;
#X connect 15 1 7 0;
#X connect 16 0 6 0;
#X connect 17 0 12 0;
#X restore -427 547 pd re-connect;
#N canvas 366 218 603 554 re-connect 0;
#X obj 29 108 inlet;
#X obj 30 171 bng 15 250 50 0 empty empty empty 0 -6 0 8 -262144 -1
-1;
#X obj 96 119 tgl 15 0 empty empty empty 0 -6 0 8 -262144 -1 -1 0 1
;
#X obj 120 432 spigot;
#X obj 96 96 inlet;
#X obj 95 213 + 1;
#X msg 95 190 1;
#X floatatom 155 265 5 0 0 0 - - -;
#X msg 95 261 0;
#X obj 127 289 bng 15 250 50 0 empty empty empty 0 -6 0 8 -262144 -1
-1;
#X obj 214 427 print re-connect;
#X obj 30 135 change;
#X msg 159 393 1;
#X msg 127 393 0;
#X obj 120 468 outlet;
#X obj 95 237 select 5;
#X obj 96 166 metro 5000;
#X obj 150 338 del 10000;
#X connect 0 0 11 0;
#X connect 1 0 8 0;
#X connect 2 0 3 1;
#X connect 2 0 16 0;
#X connect 3 0 14 0;
#X connect 4 0 2 0;
#X connect 5 0 15 0;
#X connect 6 0 5 0;
#X connect 7 0 5 1;
#X connect 8 0 7 0;
#X connect 9 0 17 0;
#X connect 9 0 13 0;
#X connect 11 0 1 0;
#X connect 12 0 10 0;
#X connect 12 0 3 0;
#X connect 13 0 10 0;
#X connect 13 0 3 0;
#X connect 15 0 8 0;
#X connect 15 0 9 0;
#X connect 15 1 7 0;
#X connect 16 0 6 0;
#X connect 17 0 12 0;
#X restore -277 589 pd re-connect;
#X obj -566 92 r off;
#X obj -407 114 r off;
#X obj -256 160 r off;
#X obj -548 406 r off;
#X obj -397 438 r off;
#X obj -236 479 r off;
#X obj -616 94 r recov;
#X obj -465 119 r recov;
#X obj -307 164 r recov;
#X obj -602 413 r recov;
#X obj -294 487 r recov;
#X obj -454 447 r recov;
#X obj -476 299 dac~ 1 2 3;
#X obj -529 591 dac~ 4 5 6;
#X obj 510 -2 r on1;
#X obj 691 60 r on1;
#X obj 871 119 r on1;
#X obj 453 240 r on1;
#X obj 620 303 r on1;
#X obj 776 366 r on1;
#X obj 565 0 r off1;
#X obj 747 57 r off1;
#X obj 921 117 r off1;
#X obj 825 367 r off1;
#X obj 669 304 r off1;
#X obj 505 240 r off1;
#X obj 196 161 tgl 15 0 empty empty empty 17 7 0 10 -262144 -1 -1 0
1;
#X obj 196 114 tgl 15 0 empty empty empty 17 7 0 10 -262144 -1 -1 0
1;
#X obj 196 208 tgl 15 0 empty empty empty 17 7 0 10 -262144 -1 -1 0
1;
#X obj 196 346 tgl 15 0 empty empty empty 17 7 0 10 -262144 -1 -1 0
1;
#X obj 196 301 tgl 15 0 empty empty empty 17 7 0 10 -262144 -1 -1 0
1;
#X obj 196 254 tgl 15 0 empty empty empty 17 7 0 10 -262144 -1 -1 0
1;
#X obj 49 114 tgl 15 0 empty empty empty 17 7 0 10 -262144 -1 -1 0
1;
#X obj 49 161 tgl 15 0 empty empty empty 17 7 0 10 -262144 -1 -1 0
1;
#X obj 49 208 tgl 15 0 empty empty empty 17 7 0 10 -262144 -1 -1 0
1;
#X obj 49 254 tgl 15 0 empty empty empty 17 7 0 10 -262144 -1 -1 0
1;
#X obj 49 300 tgl 15 0 empty empty empty 17 7 0 10 -262144 -1 -1 0
1;
#X obj 49 346 tgl 15 0 empty empty empty 17 7 0 10 -262144 -1 -1 0
1;
#X floatatom -220 550 4 0 0 0 - - -;
#X text 106 113 ALAIN;
#X text 107 161 SIMON;
#X text 107 208 STEVE;
#X text 99 254 GREGOIRE;
#X text 110 301 ANDY;
#X text 104 347 MERYLL;
#X msg 693 96 connect locus.creacast.com MixStereoSimon.ogg 9001;
#X msg 871 156 connect locus.creacast.com MixStereoSteve.ogg 9001;
#X msg 777 406 connect locus.creacast.com MixStereoMeryll.ogg 9001
;
#X msg 620 341 connect locus.creacast.com MixStereoAndy.ogg 9001;
#X msg 455 280 connect locus.creacast.com MixStereoGregoire.ogg 9001
;
#X obj -279 294 s re;
#X obj -216 249 r on;
#X obj -196 570 r on;
#X obj -276 610 s re;
#X obj -426 572 s re;
#X obj -358 523 r on;
#X obj -578 530 s re;
#X obj -510 486 r on;
#X text 182 83 Status;
#X text 35 83 Status;
#X text 84 540 STREAMSBOX for the "Now & Elsewhere" network music performance
introduced thesis work for ArTec Meeting. Novembre 6 2019;
#X text 82 478 This Streamsbox capture 6 mono audio streams from 6
performers \, and broadcast them differents master mix create with
Kiwi app and connected with JackPilot app.;
#X obj -630 37 r on;
#X obj -298 71 r on;
#X obj -207 96 r on;
#X obj -608 332 r on;
#X obj -460 398 r on;
#X obj -307 438 r on;
#X msg -635 64 connect locus.creacast.com Alain.ogg 9001;
#X msg 511 38 connect locus.creacast.com MixStereoAlain.ogg 9001;
#X obj 442 26 adc~ 1 2;
#X obj 797 180 adc~ 5 6;
#X obj 381 304 adc~ 7 8;
#X obj 703 430 adc~ 11 12;
#X obj 17 114 bng 15 250 50 0 empty empty empty 17 7 0 10 -262144 -1
-1;
#X obj 17 161 bng 15 250 50 0 empty empty empty 17 7 0 10 -262144 -1
-1;
#X obj 17 208 bng 15 250 50 0 empty empty empty 17 7 0 10 -262144 -1
-1;
#X obj 17 254 bng 15 250 50 0 empty empty empty 17 7 0 10 -262144 -1
-1;
#X obj 17 300 bng 15 250 50 0 empty empty empty 17 7 0 10 -262144 -1
-1;
#X obj 17 346 bng 15 250 50 0 empty empty empty 17 7 0 10 -262144 -1
-1;
#X obj 231 114 bng 15 250 50 0 empty empty empty 17 7 0 10 -262144
-1 -1;
#X obj 231 161 bng 15 250 50 0 empty empty empty 17 7 0 10 -262144
-1 -1;
#X obj 231 208 bng 15 250 50 0 empty empty empty 17 7 0 10 -262144
-1 -1;
#X obj 231 254 bng 15 250 50 0 empty empty empty 17 7 0 10 -262144
-1 -1;
#X obj 231 300 bng 15 250 50 0 empty empty empty 17 7 0 10 -262144
-1 -1;
#X obj 231 346 bng 15 250 50 0 empty empty empty 17 7 0 10 -262144
-1 -1;
#X obj 42 27 tgl 20 0 empty empty Inputs-ON/OFF-Outputs 25 10 0 10
-4034 -1 -1 0 1;
#X obj 197 27 tgl 20 0 empty empty empty 25 10 0 10 -4034 -1 -1 0 1
;
#X obj 546 365 adc~ 1 2;
#X obj 626 95 adc~ 1 2;
#X obj -453 656 dac~;
#X obj 375 129 osc~ 1000;
#X floatatom 382 107 0 0 0 0 - - -;
#X obj 370 6 loadbang;
#X obj -626 137 oggamp~ 0 1 256;
#X obj -479 161 oggamp~ 0 1 256;
#X obj -325 202 oggamp~ 0 1 256;
#X obj -621 445 oggamp~ 0 1 256;
#X obj -464 480 oggamp~ 0 1 256;
#X obj -311 523 oggamp~ 0 1 256;
#X obj 499 121 oggcast~ 2 256;
#X obj 680 174 oggcast~ 2 256;
#X obj 858 234 oggcast~ 2 256;
#X obj 764 484 oggcast~ 2 256;
#X obj 607 419 oggcast~ 2 256;
#X obj 442 358 oggcast~ 2 256;
#X msg 371 36 1000;
#X connect 0 0 137 0;
#X connect 1 0 210 0;
#X connect 2 0 210 0;
#X connect 3 0 210 0;
#X connect 4 0 210 0;
#X connect 5 0 2 0;
#X connect 5 0 3 0;
#X connect 5 0 4 0;
#X connect 5 0 179 0;
#X connect 6 0 210 1;
#X connect 7 0 210 0;
#X connect 8 0 136 0;
#X connect 9 0 211 0;
#X connect 10 0 211 0;
#X connect 11 0 211 0;
#X connect 12 0 211 0;
#X connect 13 0 10 0;
#X connect 13 0 11 0;
#X connect 13 0 12 0;
#X connect 13 0 155 0;
#X connect 14 0 211 1;
#X connect 15 0 211 0;
#X connect 16 0 138 0;
#X connect 17 0 212 0;
#X connect 18 0 212 0;
#X connect 19 0 212 0;
#X connect 20 0 212 0;
#X connect 21 0 18 0;
#X connect 21 0 19 0;
#X connect 21 0 20 0;
#X connect 21 0 156 0;
#X connect 22 0 212 1;
#X connect 23 0 212 0;
#X connect 24 0 141 0;
#X connect 25 0 215 0;
#X connect 26 0 215 0;
#X connect 27 0 215 0;
#X connect 28 0 215 0;
#X connect 29 0 26 0;
#X connect 29 0 27 0;
#X connect 29 0 28 0;
#X connect 29 0 159 0;
#X connect 30 0 215 1;
#X connect 31 0 215 0;
#X connect 32 0 140 0;
#X connect 33 0 214 0;
#X connect 34 0 214 0;
#X connect 35 0 214 0;
#X connect 36 0 214 0;
#X connect 37 0 34 0;
#X connect 37 0 35 0;
#X connect 37 0 36 0;
#X connect 37 0 158 0;
#X connect 38 0 214 1;
#X connect 39 0 214 0;
#X connect 40 0 139 0;
#X connect 41 0 213 0;
#X connect 42 0 213 0;
#X connect 43 0 213 0;
#X connect 44 0 213 0;
#X connect 45 0 42 0;
#X connect 45 0 43 0;
#X connect 45 0 44 0;
#X connect 45 0 157 0;
#X connect 46 0 213 1;
#X connect 47 0 213 0;
#X connect 48 0 49 0;
#X connect 51 0 50 0;
#X connect 51 1 52 0;
#X connect 53 0 51 0;
#X connect 54 0 55 0;
#X connect 55 0 56 0;
#X connect 57 0 58 0;
#X connect 57 1 59 0;
#X connect 60 0 204 0;
#X connect 61 0 89 0;
#X connect 62 0 205 0;
#X connect 63 0 90 0;
#X connect 64 0 206 0;
#X connect 65 0 91 0;
#X connect 66 0 207 0;
#X connect 67 0 92 0;
#X connect 68 0 208 0;
#X connect 69 0 93 0;
#X connect 70 0 209 0;
#X connect 71 0 94 0;
#X connect 72 0 73 0;
#X connect 73 0 100 0;
#X connect 74 0 75 0;
#X connect 75 0 103 0;
#X connect 76 0 77 0;
#X connect 77 0 106 0;
#X connect 78 0 79 0;
#X connect 79 0 107 0;
#X connect 80 0 81 0;
#X connect 81 0 108 0;
#X connect 82 0 83 0;
#X connect 83 0 109 0;
#X connect 84 0 146 0;
#X connect 85 0 145 0;
#X connect 86 0 144 0;
#X connect 87 0 142 0;
#X connect 88 0 143 0;
#X connect 89 0 122 0;
#X connect 90 0 122 1;
#X connect 91 0 122 2;
#X connect 91 0 122 0;
#X connect 92 0 123 0;
#X connect 93 0 123 1;
#X connect 93 0 200 0;
#X connect 93 0 200 1;
#X connect 94 0 123 2;
#X connect 94 0 200 0;
#X connect 94 0 200 1;
#X connect 95 0 205 0;
#X connect 96 0 206 0;
#X connect 97 0 207 0;
#X connect 98 0 208 0;
#X connect 99 0 209 0;
#X connect 100 0 102 0;
#X connect 101 0 100 1;
#X connect 103 0 105 0;
#X connect 104 0 103 1;
#X connect 106 0 160 0;
#X connect 107 0 166 0;
#X connect 108 0 164 0;
#X connect 109 0 163 0;
#X connect 110 0 60 0;
#X connect 111 0 62 0;
#X connect 112 0 64 0;
#X connect 113 0 66 0;
#X connect 114 0 68 0;
#X connect 115 0 70 0;
#X connect 116 0 204 0;
#X connect 117 0 205 0;
#X connect 118 0 206 0;
#X connect 119 0 207 0;
#X connect 120 0 209 0;
#X connect 121 0 208 0;
#X connect 124 0 5 0;
#X connect 125 0 13 0;
#X connect 126 0 21 0;
#X connect 127 0 29 0;
#X connect 128 0 37 0;
#X connect 129 0 45 0;
#X connect 130 0 1 0;
#X connect 131 0 9 0;
#X connect 132 0 17 0;
#X connect 133 0 41 0;
#X connect 134 0 33 0;
#X connect 135 0 25 0;
#X connect 148 0 147 0;
#X connect 155 0 211 0;
#X connect 156 0 212 0;
#X connect 157 0 213 0;
#X connect 158 0 214 0;
#X connect 159 0 215 0;
#X connect 161 0 106 1;
#X connect 162 0 109 1;
#X connect 165 0 108 1;
#X connect 167 0 107 1;
#X connect 172 0 178 0;
#X connect 173 0 95 0;
#X connect 174 0 96 0;
#X connect 175 0 97 0;
#X connect 176 0 98 0;
#X connect 177 0 99 0;
#X connect 178 0 204 0;
#X connect 179 0 210 0;
#X connect 180 0 7 0;
#X connect 180 1 6 0;
#X connect 181 0 23 0;
#X connect 181 1 22 0;
#X connect 182 0 31 0;
#X connect 182 1 30 0;
#X connect 183 0 47 0;
#X connect 183 1 46 0;
#X connect 184 0 178 0;
#X connect 185 0 95 0;
#X connect 186 0 96 0;
#X connect 187 0 97 0;
#X connect 188 0 98 0;
#X connect 189 0 99 0;
#X connect 190 0 5 0;
#X connect 191 0 13 0;
#X connect 192 0 21 0;
#X connect 193 0 29 0;
#X connect 194 0 37 0;
#X connect 195 0 45 0;
#X connect 196 0 51 0;
#X connect 197 0 57 0;
#X connect 198 0 39 0;
#X connect 198 1 38 0;
#X connect 199 0 15 0;
#X connect 199 1 14 0;
#X connect 201 0 47 0;
#X connect 201 0 46 0;
#X connect 201 0 23 0;
#X connect 201 0 22 0;
#X connect 201 0 15 0;
#X connect 201 0 14 0;
#X connect 201 0 39 0;
#X connect 201 0 38 0;
#X connect 202 0 201 0;
#X connect 203 0 216 0;
#X connect 204 0 61 0;
#X connect 204 0 72 0;
#X connect 204 1 87 0;
#X connect 205 0 63 0;
#X connect 205 0 74 0;
#X connect 205 1 88 0;
#X connect 206 0 65 0;
#X connect 206 0 76 0;
#X connect 206 1 86 0;
#X connect 207 0 67 0;
#X connect 207 0 78 0;
#X connect 207 1 85 0;
#X connect 208 0 69 0;
#X connect 208 0 80 0;
#X connect 208 1 84 0;
#X connect 209 0 71 0;
#X connect 209 0 82 0;
#X connect 209 1 148 0;
#X connect 210 0 0 0;
#X connect 211 0 8 0;
#X connect 212 0 16 0;
#X connect 213 0 40 0;
#X connect 214 0 32 0;
#X connect 215 0 24 0;
#X connect 216 0 202 0;
#X coords 0 1 100 -1 260 400 1 0 0;
#X restore 61 54 graph;
#X text 82 487 X = connecté / Bang = reconnection;
