#N canvas 633 100 348 336 12;
#X obj 49 43 cnv 15 240 240 empty empty STREAMBOX 140 12 0 14 -228856
-13381 0;
#N canvas 507 132 908 732 (subpatch) 1;
#X floatatom 50 25 2 0 0 0 - - -;
#X msg 366 241 disconnect;
#X msg 247 82 \; pd dsp 1;
#X obj 247 56 loadbang;
#X msg 327 263 server 1;
#X msg 328 289 passwd locusonus1;
#X obj 328 243 bng 15 250 50 0 empty empty empty 17 7 0 10 -262144
-1 -1;
#X msg 327 338 connect locus.creacast.com Alain.ogg 9001;
#X msg -214 336 disconnect;
#X obj -238 430 hip~ 10;
#X obj -233 387 env~;
#X floatatom -233 409 4 0 0 0 - - -;
#X obj -180 430 hip~ 10;
#X obj -172 388 env~;
#X floatatom -172 410 4 0 0 0 - - -;
#X obj 257 295 hip~ 5;
#X obj -79 53 s on;
#X obj -238 262 r on;
#X obj 4 5 tgl 15 0 empty empty ON/OFF 17 7 0 10 -4034 -1 -1 0 1;
#X obj -79 28 sel 1;
#X obj 328 221 r on;
#X obj -45 53 s off;
#X obj 366 221 r off;
#X obj -214 316 r off;
#N canvas 366 218 603 554 re-connect 0;
#X obj 29 108 inlet;
#X obj 30 171 bng 15 250 50 0 empty empty empty 0 -6 0 8 -262144 -1
-1;
#X obj 96 119 tgl 15 0 empty empty empty 0 -6 0 8 -262144 -1 -1 0 1
;
#X obj 120 432 spigot;
#X obj 96 96 inlet;
#X obj 95 213 + 1;
#X msg 95 190 1;
#X floatatom 155 265 5 0 0 0 - - -;
#X msg 95 261 0;
#X obj 127 289 bng 15 250 50 0 empty empty empty 0 -6 0 8 -262144 -1
-1;
#X obj 214 427 print re-connect;
#X obj 30 135 change;
#X msg 159 393 1;
#X msg 127 393 0;
#X obj 120 468 outlet;
#X obj 95 237 select 5;
#X obj 96 166 metro 5000;
#X obj 150 338 del 10000;
#X connect 0 0 11 0;
#X connect 1 0 8 0;
#X connect 2 0 3 1;
#X connect 2 0 16 0;
#X connect 3 0 14 0;
#X connect 4 0 2 0;
#X connect 5 0 15 0;
#X connect 6 0 5 0;
#X connect 7 0 5 1;
#X connect 8 0 7 0;
#X connect 9 0 17 0;
#X connect 9 0 13 0;
#X connect 11 0 1 0;
#X connect 12 0 10 0;
#X connect 12 0 3 0;
#X connect 13 0 10 0;
#X connect 13 0 3 0;
#X connect 15 0 8 0;
#X connect 15 0 9 0;
#X connect 15 1 7 0;
#X connect 16 0 6 0;
#X connect 17 0 12 0;
#X restore -123 430 pd re-connect;
#X obj -60 407 r on;
#X obj -123 452 s re;
#X obj -79 1 r re;
#X obj 19 48 vsl 20 128 0 1 0 0 empty empty YOU 2 140 0 10 -99865 -260097
-33289 8800 1;
#X obj 113 49 vsl 20 128 0 1 0 0 empty empty ALL 2 140 0 10 -99865
-260097 -33289 8400 1;
#X obj -123 318 loadbang;
#X msg -123 341 recover 0;
#X obj 257 318 env~;
#X obj 51 54 vu 16 120 empty empty 60 0 0 10 -128992 -162280 1 0;
#X obj -69 104 loadbang;
#X msg -69 123 set \$1;
#X msg -69 143 0.692913;
#X obj 257 341 - 100;
#X obj 146 54 vu 8 120 empty empty 60 0 0 10 -128992 -355 0 0;
#X msg -127 475 \$1 5;
#X obj -238 513 *~;
#X obj -180 513 *~;
#X obj -127 495 line~;
#X msg 276 224 \$1 5;
#X obj 276 245 line~;
#X obj 257 271 *~;
#X obj 156 54 vu 8 120 empty empty 60 0 0 10 -128992 -162280 1 0;
#X obj -155 537 env~;
#X obj -114 538 env~;
#X obj -155 559 - 100;
#X obj -114 560 - 100;
#X msg -238 291 connect locus.creacast.com MixStereoAlain.ogg 9001
;
#X obj 257 194 adc~ 1;
#X obj 257 366 oggcast~ 1 256;
#X msg 327 313 vbr 44100 1 1;
#X floatatom 147 25 2 0 0 0 - - -;
#X text 80 24 Status;
#N canvas 366 218 603 554 re-connect 0;
#X obj 29 108 inlet;
#X obj 30 171 bng 15 250 50 0 empty empty empty 0 -6 0 8 -262144 -1
-1;
#X obj 96 119 tgl 15 0 empty empty empty 0 -6 0 8 -262144 -1 -1 0 1
;
#X obj 120 432 spigot;
#X obj 96 96 inlet;
#X obj 95 213 + 1;
#X msg 95 190 1;
#X floatatom 155 265 5 0 0 0 - - -;
#X msg 95 261 0;
#X obj 127 289 bng 15 250 50 0 empty empty empty 0 -6 0 8 -262144 -1
-1;
#X obj 214 427 print re-connect;
#X obj 30 135 change;
#X msg 159 393 1;
#X msg 127 393 0;
#X obj 120 468 outlet;
#X obj 95 237 select 5;
#X obj 96 166 metro 5000;
#X obj 150 338 del 10000;
#X connect 0 0 11 0;
#X connect 1 0 8 0;
#X connect 2 0 3 1;
#X connect 2 0 16 0;
#X connect 3 0 14 0;
#X connect 4 0 2 0;
#X connect 5 0 15 0;
#X connect 6 0 5 0;
#X connect 7 0 5 1;
#X connect 8 0 7 0;
#X connect 9 0 17 0;
#X connect 9 0 13 0;
#X connect 11 0 1 0;
#X connect 12 0 10 0;
#X connect 12 0 3 0;
#X connect 13 0 10 0;
#X connect 13 0 3 0;
#X connect 15 0 8 0;
#X connect 15 0 9 0;
#X connect 15 1 7 0;
#X connect 16 0 6 0;
#X connect 17 0 12 0;
#X restore 210 443 pd re-connect;
#X obj 273 420 r on;
#X obj 210 465 s re;
#X obj 211 396 env~;
#X floatatom 211 418 4 0 0 0 - - -;
#X obj -238 361 oggamp~ 0 2 96;
#X obj -235 542 dac~ 1 2;
#X connect 1 0 53 0;
#X connect 3 0 2 0;
#X connect 4 0 53 0;
#X connect 5 0 53 0;
#X connect 6 0 4 0;
#X connect 6 0 5 0;
#X connect 6 0 54 0;
#X connect 6 0 7 0;
#X connect 7 0 53 0;
#X connect 8 0 62 0;
#X connect 9 0 40 0;
#X connect 10 0 11 0;
#X connect 11 0 24 0;
#X connect 12 0 41 0;
#X connect 13 0 14 0;
#X connect 14 0 24 0;
#X connect 15 0 32 0;
#X connect 15 0 53 0;
#X connect 15 0 60 0;
#X connect 17 0 51 0;
#X connect 18 0 19 0;
#X connect 19 0 16 0;
#X connect 19 1 21 0;
#X connect 20 0 6 0;
#X connect 22 0 1 0;
#X connect 23 0 8 0;
#X connect 24 0 26 0;
#X connect 25 0 24 1;
#X connect 27 0 19 0;
#X connect 28 0 35 0;
#X connect 28 0 43 0;
#X connect 29 0 39 0;
#X connect 30 0 31 0;
#X connect 31 0 62 0;
#X connect 32 0 37 0;
#X connect 34 0 36 0;
#X connect 35 0 36 0;
#X connect 36 0 28 0;
#X connect 36 0 29 0;
#X connect 37 0 33 0;
#X connect 39 0 42 0;
#X connect 40 0 47 0;
#X connect 40 0 63 0;
#X connect 41 0 48 0;
#X connect 41 0 63 1;
#X connect 42 0 40 1;
#X connect 42 0 41 1;
#X connect 43 0 44 0;
#X connect 44 0 45 1;
#X connect 45 0 15 0;
#X connect 47 0 49 0;
#X connect 48 0 50 0;
#X connect 49 0 38 0;
#X connect 50 0 46 0;
#X connect 51 0 62 0;
#X connect 52 0 45 0;
#X connect 53 0 0 0;
#X connect 54 0 53 0;
#X connect 57 0 59 0;
#X connect 58 0 57 1;
#X connect 60 0 61 0;
#X connect 61 0 57 0;
#X connect 62 0 9 0;
#X connect 62 0 10 0;
#X connect 62 1 13 0;
#X connect 62 1 12 0;
#X connect 62 2 55 0;
#X coords 0 1 100 -1 200 200 1 0 0;
#X restore 69 63 graph;
#X text 52 292 Status 1 = connecté;
