#N canvas 231 158 793 585 12;
#X obj 93 68 cnv 15 620 420 empty empty StreamBox-Alain 450 20 0 14
-128992 -1 0;
#N canvas 86 23 1302 855 (subpatch) 0;
#X obj 402 119 vu 15 200 empty empty -1 -8 0 10 -66577 -1 1 0;
#X obj 376 118 vsl 20 200 0 1 0 0 empty empty YOU 1 210 0 10 -66577
-260097 -1 13900 1;
#X obj 421 -85 loadbang;
#X msg 421 -66 set \$1;
#X msg 419 -41 0.698492;
#X msg 758 12 \$1 5;
#X obj 758 33 line~;
#X obj 738 55 *~;
#X msg 148 462 Interpol \$1;
#X msg 151 509 Time \$1;
#X msg 147 485 Feedback \$1;
#X msg 151 532 Dry/Wet \$1;
#X obj 56 242 hsl 200 18 0.1 100 0 0 empty empty Interpol 150 9 0 10
-66577 -260097 -262144 1972 1;
#X obj 56 264 hsl 200 18 0 0.999 0 0 empty empty Feedback 150 9 0 10
-66577 -260097 -262144 0 1;
#X obj 56 286 hsl 200 18 0.001 2 0 0 empty empty Time(s) 150 9 0 10
-66577 -260097 -262144 9945 1;
#X obj 56 308 hsl 200 18 0 1 0 0 empty empty Dry/Wet 150 9 0 10 -66577
-260097 -262144 19900 1;
#X msg -97 543 Bypass \$1;
#X obj 226 158 tgl 15 0 empty empty Bypass -40 7 0 10 -191407 -1 -1
0 1;
#X obj 226 337 tgl 15 0 empty empty Bypass -40 7 0 10 -191407 -1 -1
0 1;
#X obj -84 33 loadbang;
#X msg -84 77 8192;
#X msg -83 58 4096;
#X msg -87 125 1;
#X msg -99 520 Dry/Wet \$1;
#X obj 55 65 hsl 200 18 10 4096 0 0 empty empty Duration 150 9 0 10
-66577 -260097 -262144 19900 1;
#X obj 55 87 hsl 200 18 10 8192 0 0 empty empty Length 150 9 0 10 -66577
-260097 -262144 19900 1;
#X obj 55 109 hsl 200 18 -24 24 0 1 empty empty Shift 150 9 0 10 -66577
-260097 -262144 10365 1;
#X obj 55 131 hsl 200 18 0 1 0 0 empty empty Dry/Wet 150 9 0 10 -66577
-260097 -262144 19900 1;
#X msg 152 559 Bypass \$1;
#X msg -98 451 Duration \$1;
#X msg -99 474 Length \$1;
#X msg -99 497 Shift \$1;
#X text 51 218 DELAY;
#X text 51 39 PITCHSHIFTER;
#X obj -94 236 loadbang;
#X msg -93 282 1;
#X msg -94 260 10;
#X msg 715 381 disconnect;
#X obj 691 475 hip~ 10;
#X obj 696 432 env~;
#X floatatom 696 454 4 0 0 0 - - -;
#X obj 749 475 hip~ 10;
#X obj 757 433 env~;
#X floatatom 757 455 4 0 0 0 - - -;
#X obj 691 307 r on;
#X obj 715 361 r off;
#N canvas 366 218 603 554 re-connect 0;
#X obj 29 108 inlet;
#X obj 30 171 bng 15 250 50 0 empty empty empty 0 -6 0 8 -262144 -1
-1;
#X obj 96 119 tgl 15 0 empty empty empty 0 -6 0 8 -262144 -1 -1 0 1
;
#X obj 120 432 spigot;
#X obj 96 96 inlet;
#X obj 95 213 + 1;
#X msg 95 190 1;
#X floatatom 155 265 5 0 0 0 - - -;
#X msg 95 261 0;
#X obj 127 289 bng 15 250 50 0 empty empty empty 0 -6 0 8 -262144 -1
-1;
#X obj 214 427 print re-connect;
#X obj 30 135 change;
#X msg 159 393 1;
#X msg 127 393 0;
#X obj 120 468 outlet;
#X obj 95 237 select 5;
#X obj 96 166 metro 5000;
#X obj 150 338 del 10000;
#X connect 0 0 11 0;
#X connect 1 0 8 0;
#X connect 2 0 3 1;
#X connect 2 0 16 0;
#X connect 3 0 14 0;
#X connect 4 0 2 0;
#X connect 5 0 15 0;
#X connect 6 0 5 0;
#X connect 7 0 5 1;
#X connect 8 0 7 0;
#X connect 9 0 17 0;
#X connect 9 0 13 0;
#X connect 11 0 1 0;
#X connect 12 0 10 0;
#X connect 12 0 3 0;
#X connect 13 0 10 0;
#X connect 13 0 3 0;
#X connect 15 0 8 0;
#X connect 15 0 9 0;
#X connect 15 1 7 0;
#X connect 16 0 6 0;
#X connect 17 0 12 0;
#X restore 806 475 pd re-connect;
#X obj 869 452 r on;
#X obj 806 497 s re;
#X obj 806 363 loadbang;
#X msg 806 386 recover 0;
#X msg 802 520 \$1 5;
#X obj 691 558 *~;
#X obj 749 558 *~;
#X obj 802 540 line~;
#X obj 774 582 env~;
#X obj 815 583 env~;
#X obj 774 604 - 100;
#X obj 815 605 - 100;
#X msg 693 337 connect locus.creacast.com MixStereoAlain.ogg 9001;
#X floatatom 496 87 2 0 0 0 - - -;
#X text 432 88 Status;
#X obj 691 406 oggamp~ 0 2 96;
#X obj 516 643 dac~ 1 2;
#X obj 488 119 vu 15 200 empty empty -1 -8 0 10 -66577 -1 0 0;
#X obj 462 118 vsl 20 200 0 1 0 0 empty empty ALL 1 210 0 10 -66577
-260097 -1 8000 1;
#X obj 505 119 vu 15 200 empty empty -1 -8 0 10 -66577 -1 1 0;
#X obj 231 -56 s on;
#X obj 337 29 tgl 20 0 empty empty ON/OFF 25 10 0 10 -4034 -1 -1 0
1;
#X obj 231 -81 sel 1;
#X obj 265 -56 s off;
#X obj 231 -108 r re;
#X floatatom 402 87 2 0 0 0 - - -;
#X msg 845 25 disconnect;
#X msg 28 -62 \; pd dsp 1;
#X obj 28 -88 loadbang;
#X msg 806 47 server 1;
#X msg 807 73 passwd locusonus1;
#X obj 807 27 bng 15 250 50 0 empty empty empty 17 7 0 10 -262144 -1
-1;
#X msg 806 122 connect locus.creacast.com Alain.ogg 9001;
#X obj 736 79 hip~ 5;
#X obj 807 5 r on;
#X obj 845 5 r off;
#X obj 736 102 env~;
#X obj 736 126 - 100;
#X msg 806 97 vbr 44100 1 1;
#N canvas 366 218 603 554 re-connect 0;
#X obj 29 108 inlet;
#X obj 30 171 bng 15 250 50 0 empty empty empty 0 -6 0 8 -262144 -1
-1;
#X obj 96 119 tgl 15 0 empty empty empty 0 -6 0 8 -262144 -1 -1 0 1
;
#X obj 120 432 spigot;
#X obj 96 96 inlet;
#X obj 95 213 + 1;
#X msg 95 190 1;
#X floatatom 155 265 5 0 0 0 - - -;
#X msg 95 261 0;
#X obj 127 289 bng 15 250 50 0 empty empty empty 0 -6 0 8 -262144 -1
-1;
#X obj 214 427 print re-connect;
#X obj 30 135 change;
#X msg 159 393 1;
#X msg 127 393 0;
#X obj 120 468 outlet;
#X obj 95 237 select 5;
#X obj 96 166 metro 5000;
#X obj 150 338 del 10000;
#X connect 0 0 11 0;
#X connect 1 0 8 0;
#X connect 2 0 3 1;
#X connect 2 0 16 0;
#X connect 3 0 14 0;
#X connect 4 0 2 0;
#X connect 5 0 15 0;
#X connect 6 0 5 0;
#X connect 7 0 5 1;
#X connect 8 0 7 0;
#X connect 9 0 17 0;
#X connect 9 0 13 0;
#X connect 11 0 1 0;
#X connect 12 0 10 0;
#X connect 12 0 3 0;
#X connect 13 0 10 0;
#X connect 13 0 3 0;
#X connect 15 0 8 0;
#X connect 15 0 9 0;
#X connect 15 1 7 0;
#X connect 16 0 6 0;
#X connect 17 0 12 0;
#X restore 727 208 pd re-connect;
#X obj 790 185 r on;
#X obj 727 230 s re;
#X floatatom 728 183 4 0 0 0 - - -;
#X obj 402 68 bng 15 250 50 0 empty empty Reconnect 28 7 0 10 -262144
-1 -1;
#X obj 496 68 bng 15 250 50 0 empty empty empty 17 7 0 10 -262144 -1
-1;
#X obj -117 571 faustgen~ pitchshifter;
#X obj 147 586 faustgen~ delay;
#X obj -187 379 adc~ 1 2;
#X obj 262 133 nbx 5 14 -1e+37 1e+37 0 0 empty empty empty 0 -8 0 10
-262144 -1 -1 1 256;
#X obj 262 111 nbx 5 14 -1e+37 1e+37 0 0 empty empty empty 0 -8 0 10
-262144 -1 -1 1 256;
#X obj 262 89 nbx 5 14 -1e+37 1e+37 0 0 empty empty empty 0 -8 0 10
-262144 -1 -1 8192 256;
#X obj 261 67 nbx 5 14 -1e+37 1e+37 0 0 empty empty empty 0 -8 0 10
-262144 -1 -1 4096 256;
#X obj 263 310 nbx 5 14 -1e+37 1e+37 0 0 empty empty empty 0 -8 0 10
-262144 -1 -1 1 256;
#X obj 263 288 nbx 5 14 -1e+37 1e+37 0 0 empty empty empty 0 -8 0 10
-262144 -1 -1 1 256;
#X obj 263 267 nbx 5 14 -1e+37 1e+37 0 0 empty empty empty 0 -8 0 10
-262144 -1 -1 0 256;
#X obj 262 244 nbx 5 14 -1e+37 1e+37 0 0 empty empty empty 0 -8 0 10
-262144 -1 -1 10 256;
#X msg -84 100 1;
#X obj 736 150 oggcast~ 1 128;
#X connect 1 0 3 0;
#X connect 1 0 5 0;
#X connect 2 0 4 0;
#X connect 3 0 4 0;
#X connect 4 0 1 0;
#X connect 4 0 65 0;
#X connect 5 0 6 0;
#X connect 6 0 7 1;
#X connect 7 0 80 0;
#X connect 8 0 93 0;
#X connect 9 0 93 0;
#X connect 10 0 93 0;
#X connect 11 0 93 0;
#X connect 12 0 8 0;
#X connect 12 0 102 0;
#X connect 13 0 10 0;
#X connect 13 0 101 0;
#X connect 14 0 9 0;
#X connect 14 0 100 0;
#X connect 15 0 11 0;
#X connect 15 0 99 0;
#X connect 16 0 92 0;
#X connect 17 0 16 0;
#X connect 18 0 28 0;
#X connect 19 0 20 0;
#X connect 19 0 22 0;
#X connect 19 0 21 0;
#X connect 19 0 103 0;
#X connect 20 0 25 0;
#X connect 21 0 24 0;
#X connect 22 0 27 0;
#X connect 23 0 92 0;
#X connect 24 0 29 0;
#X connect 24 0 98 0;
#X connect 25 0 30 0;
#X connect 25 0 97 0;
#X connect 26 0 31 0;
#X connect 26 0 96 0;
#X connect 27 0 23 0;
#X connect 27 0 95 0;
#X connect 28 0 93 0;
#X connect 29 0 92 0;
#X connect 30 0 92 0;
#X connect 31 0 92 0;
#X connect 34 0 35 0;
#X connect 34 0 36 0;
#X connect 35 0 14 0;
#X connect 35 0 15 0;
#X connect 36 0 12 0;
#X connect 37 0 62 0;
#X connect 38 0 52 0;
#X connect 39 0 40 0;
#X connect 40 0 46 0;
#X connect 41 0 53 0;
#X connect 42 0 43 0;
#X connect 43 0 46 0;
#X connect 44 0 59 0;
#X connect 45 0 37 0;
#X connect 46 0 48 0;
#X connect 47 0 46 1;
#X connect 49 0 50 0;
#X connect 50 0 62 0;
#X connect 51 0 54 0;
#X connect 52 0 55 0;
#X connect 52 0 63 0;
#X connect 53 0 56 0;
#X connect 53 0 63 1;
#X connect 54 0 52 1;
#X connect 54 0 53 1;
#X connect 55 0 57 0;
#X connect 56 0 58 0;
#X connect 57 0 64 0;
#X connect 58 0 66 1;
#X connect 59 0 62 0;
#X connect 62 0 38 0;
#X connect 62 0 39 0;
#X connect 62 1 42 0;
#X connect 62 1 41 0;
#X connect 62 2 60 0;
#X connect 65 0 51 0;
#X connect 68 0 69 0;
#X connect 69 0 67 0;
#X connect 69 1 70 0;
#X connect 71 0 69 0;
#X connect 73 0 104 0;
#X connect 75 0 74 0;
#X connect 76 0 104 0;
#X connect 77 0 104 0;
#X connect 78 0 76 0;
#X connect 78 0 77 0;
#X connect 78 0 85 0;
#X connect 78 0 79 0;
#X connect 79 0 104 0;
#X connect 80 0 83 0;
#X connect 80 0 63 0;
#X connect 80 0 63 1;
#X connect 80 0 104 0;
#X connect 81 0 78 0;
#X connect 82 0 73 0;
#X connect 83 0 84 0;
#X connect 83 0 89 0;
#X connect 84 0 0 0;
#X connect 85 0 104 0;
#X connect 86 0 88 0;
#X connect 87 0 86 1;
#X connect 89 0 86 0;
#X connect 90 0 78 0;
#X connect 91 0 59 0;
#X connect 92 0 93 0;
#X connect 93 0 7 0;
#X connect 94 0 92 0;
#X connect 94 1 92 0;
#X connect 103 0 26 0;
#X connect 104 0 72 0;
#X coords 0 1 100 -1 600 400 1 0 0;
#X restore 102 78 graph;
